<svg width="140" height="120" viewBox="0 0 140 120" fill="none" xmlns="http://www.w3.org/2000/svg">
<rect y="72" width="140" height="48" rx="8" fill="#ECEADC"/>
<path d="M112.17 55H108.71V68.6001H81.04V55.05H30.28C28.49 55.05 27.04 56.5 27.04 59.05V100.77C27.04 101.83 28.49 103.28 30.28 103.28H112.39C113.249 103.28 114.074 102.939 114.681 102.331C115.289 101.724 115.63 100.899 115.63 100.04V68.62C115.59 68.14 112.17 55 112.17 55Z" fill="white"/>
<path d="M27.55 68.61H115.63" stroke="black" stroke-width="2" stroke-linecap="round" stroke-linejoin="round"/>
<path d="M54.4402 89.25H28.6602C28.4471 89.2513 28.2358 89.2103 28.0386 89.1294C27.8415 89.0484 27.6624 88.9292 27.5118 88.7785C27.3611 88.6278 27.2416 88.4487 27.1607 88.2516C27.0797 88.0544 27.0387 87.8431 27.0401 87.63V77.01C27.0401 76.5803 27.2109 76.1683 27.5147 75.8645C27.8185 75.5607 28.2305 75.39 28.6602 75.39H96.0801C96.5098 75.39 96.9218 75.5607 97.2256 75.8645C97.5294 76.1683 97.7002 76.5803 97.7002 77.01V87.67C97.7016 87.8831 97.6606 88.0943 97.5796 88.2915C97.4987 88.4886 97.3792 88.6678 97.2285 88.8185C97.0779 88.9691 96.8988 89.0885 96.7017 89.1694C96.5045 89.2503 96.2932 89.2913 96.0801 89.29H81.0801" fill="#ECEADC"/>
<path d="M54.4402 89.25H28.6602C28.4471 89.2513 28.2358 89.2103 28.0386 89.1294C27.8415 89.0484 27.6624 88.9292 27.5118 88.7785C27.3611 88.6278 27.2416 88.4487 27.1607 88.2516C27.0797 88.0544 27.0387 87.8431 27.0401 87.63V77.01C27.0401 76.5803 27.2109 76.1683 27.5147 75.8645C27.8185 75.5607 28.2305 75.39 28.6602 75.39H96.0801C96.5098 75.39 96.9218 75.5607 97.2256 75.8645C97.5294 76.1683 97.7002 76.5803 97.7002 77.01V87.67C97.7016 87.8831 97.6606 88.0943 97.5796 88.2915C97.4987 88.4886 97.3792 88.6678 97.2285 88.8185C97.0779 88.9691 96.8988 89.0885 96.7017 89.1694C96.5045 89.2503 96.2932 89.2913 96.0801 89.29H81.0801" stroke="black" stroke-width="2" stroke-linecap="round" stroke-linejoin="round"/>
<path d="M81.0301 75.4H54.4401V103.27H81.0301V75.4Z" fill="#FCC602"/>
<path d="M67.7401 75.4V103.27" stroke="black" stroke-width="2" stroke-linecap="round" stroke-linejoin="round"/>
<path d="M81.0301 75.4H54.4401V103.27H81.0301V75.4Z" stroke="black" stroke-width="2" stroke-linecap="round" stroke-linejoin="round"/>
<path d="M115.59 68.6001C115.59 68.1401 112.13 55 112.13 55H108.67V68.6001" stroke="black" stroke-width="2" stroke-linecap="round" stroke-linejoin="round"/>
<path d="M115.59 68.6001V100.02C115.59 100.879 115.249 101.704 114.641 102.311C114.033 102.919 113.209 103.26 112.35 103.26H30.24C28.45 103.26 27 101.81 27 100.75V59.03C27 56.5 28.45 55.03 30.24 55.03H81" stroke="black" stroke-width="2" stroke-linecap="round" stroke-linejoin="round"/>
<path d="M115.59 87.67V89.29H110.29C109.86 89.29 109.448 89.1193 109.145 88.8155C108.841 88.5117 108.67 88.0997 108.67 87.67V77.05C108.673 76.6212 108.844 76.2107 109.147 75.9074C109.451 75.6042 109.861 75.4326 110.29 75.43H115.59V87.67Z" fill="#ECEADC" stroke="black" stroke-width="2" stroke-linecap="round" stroke-linejoin="round"/>
<path d="M41.1501 55.05V68.61" stroke="black" stroke-width="2" stroke-linecap="round" stroke-linejoin="round"/>
<path d="M54.4401 55.05V68.61" stroke="black" stroke-width="2" stroke-linecap="round" stroke-linejoin="round"/>
<path d="M81.04 55.05V68.61" stroke="black" stroke-width="2" stroke-linecap="round" stroke-linejoin="round"/>
<path d="M48.1702 101.58C48.1702 102.964 47.7597 104.318 46.9905 105.469C46.2213 106.62 45.128 107.517 43.8489 108.047C42.5698 108.577 41.1623 108.716 39.8045 108.445C38.4466 108.175 37.1994 107.509 36.2205 106.53C35.2415 105.551 34.5748 104.304 34.3047 102.946C34.0346 101.588 34.1731 100.18 34.7029 98.9012C35.2327 97.6222 36.1299 96.5288 37.281 95.7596C38.4322 94.9905 39.7857 94.5801 41.1702 94.5801C43.0267 94.5801 44.8071 95.3175 46.1199 96.6302C47.4327 97.943 48.1702 99.7234 48.1702 101.58Z" fill="white" stroke="black" stroke-width="2" stroke-linecap="round" stroke-linejoin="round"/>
<path d="M103.92 101.58C103.92 102.964 103.51 104.318 102.741 105.469C101.971 106.62 100.878 107.517 99.5989 108.047C98.3198 108.577 96.9123 108.716 95.5545 108.445C94.1966 108.175 92.9494 107.509 91.9705 106.53C90.9915 105.551 90.3248 104.304 90.0547 102.946C89.7846 101.588 89.9231 100.18 90.4529 98.9012C90.9827 97.6222 91.8799 96.5288 93.031 95.7596C94.1822 94.9905 95.5357 94.5801 96.9202 94.5801C98.7767 94.5801 100.557 95.3175 101.87 96.6302C103.183 97.943 103.92 99.7234 103.92 101.58Z" fill="white" stroke="black" stroke-width="2" stroke-linecap="round" stroke-linejoin="round"/>
<path d="M67.7401 55.05V68.61" stroke="black" stroke-width="2" stroke-linecap="round" stroke-linejoin="round"/>
</svg>
