<svg width="140" height="120" viewBox="0 0 140 120" fill="none" xmlns="http://www.w3.org/2000/svg">
<rect y="72" width="140" height="48" rx="8" fill="#ECEADC"/>
<path d="M91.9969 71.58H39.9969V108.19H91.9969V71.58Z" fill="white" stroke="black" stroke-width="2" stroke-linecap="round" stroke-linejoin="round"/>
<path d="M77.467 59.52L80.947 56.0301C81.687 55.3001 84.677 52.4701 87.217 55.0301C90.927 58.7501 90.127 72.2101 90.127 72.2101" fill="white"/>
<path d="M77.467 59.52L80.947 56.0301C81.687 55.3001 84.677 52.4701 87.217 55.0301C90.927 58.7501 90.127 72.2101 90.127 72.2101" stroke="black" stroke-width="2" stroke-linecap="round" stroke-linejoin="round"/>
<path d="M100.757 82.8101L104.247 79.3301C104.977 78.5901 107.807 75.6001 105.247 73.0601C101.527 69.3501 88.0669 70.15 88.0669 70.15" fill="white"/>
<path d="M100.757 82.8101L104.247 79.3301C104.977 78.5901 107.807 75.6001 105.247 73.0601C101.527 69.3501 88.0669 70.15 88.0669 70.15" stroke="black" stroke-width="2" stroke-linecap="round" stroke-linejoin="round"/>
<path d="M71.0266 53.7916L64.5071 60.3111L99.912 95.716L106.431 89.1965L71.0266 53.7916Z" fill="white" stroke="black" stroke-width="2" stroke-linecap="round" stroke-linejoin="round"/>
<path d="M85.4869 81.32L92.0069 74.8" stroke="black" stroke-width="2" stroke-linejoin="round"/>
<path d="M85.487 68.28L78.957 74.8" stroke="black" stroke-width="2" stroke-linejoin="round"/>
<path d="M70.9969 71.58H60.9969V108.19H70.9969V71.58Z" fill="#ECEADC" stroke="black" stroke-width="2" stroke-linecap="round" stroke-linejoin="round"/>
<path d="M66.2969 38.22L55.3369 49.18" stroke="black" stroke-width="2" stroke-linecap="round" stroke-linejoin="round"/>
<path d="M60.0269 39.79C59.7164 40.1005 59.321 40.3119 58.8904 40.3975C58.4598 40.4831 58.0133 40.439 57.6077 40.271C57.2021 40.103 56.8555 39.8184 56.6116 39.4534C56.3677 39.0883 56.2373 38.659 56.2373 38.22C56.2373 37.7809 56.3677 37.3518 56.6116 36.9867C56.8555 36.6216 57.2021 36.3371 57.6077 36.1691C58.0133 36.001 58.4598 35.957 58.8904 36.0426C59.321 36.1282 59.7164 36.3396 60.0269 36.65C60.2331 36.8562 60.3967 37.101 60.5083 37.3704C60.6199 37.6397 60.6775 37.9284 60.6775 38.22C60.6775 38.5116 60.6199 38.8003 60.5083 39.0697C60.3967 39.3391 60.2331 39.5839 60.0269 39.79Z" stroke="black" stroke-width="2" stroke-linecap="round" stroke-linejoin="round"/>
<path d="M64.897 50.87C64.5865 51.1804 64.1909 51.3918 63.7603 51.4775C63.3296 51.5631 62.8834 51.519 62.4778 51.351C62.0722 51.1829 61.7254 50.8984 61.4814 50.5334C61.2375 50.1683 61.1074 49.7391 61.1074 49.3001C61.1074 48.861 61.2375 48.4319 61.4814 48.0668C61.7254 47.7017 62.0722 47.4171 62.4778 47.2491C62.8834 47.081 63.3296 47.0371 63.7603 47.1227C64.1909 47.2083 64.5865 47.4196 64.897 47.73C65.1032 47.9362 65.2668 48.181 65.3784 48.4504C65.49 48.7197 65.5474 49.0085 65.5474 49.3001C65.5474 49.5917 65.49 49.8804 65.3784 50.1498C65.2668 50.4192 65.1032 50.6639 64.897 50.87Z" stroke="black" stroke-width="2" stroke-linecap="round" stroke-linejoin="round"/>
<path d="M50.4032 52.7588C49.6477 50.6831 47.2818 49.6381 45.1193 50.4252C43.503 51.0135 42.4571 52.4593 42.3484 54.019C41.2626 52.8941 39.5321 52.4588 37.915 53.0474C35.7541 53.8339 34.6126 56.1554 35.3681 58.2311C37.5631 64.2618 46.5338 65.5183 46.5338 65.5183C46.5338 65.5183 52.5982 58.7895 50.4032 52.7588Z" fill="#FCC602" stroke="black" stroke-width="2" stroke-linecap="round" stroke-linejoin="round"/>
</svg>
