<svg width="140" height="120" viewBox="0 0 140 120" fill="none" xmlns="http://www.w3.org/2000/svg">
<rect y="72" width="140" height="48" rx="8" fill="#ECEADC"/>
<path d="M31.3799 103.86C31.3832 104.577 31.1775 105.28 30.7876 105.882C30.3978 106.484 29.8409 106.96 29.1851 107.251C28.5293 107.541 27.8032 107.634 27.0953 107.519C26.3873 107.403 25.7282 107.084 25.199 106.599C24.6698 106.115 24.2932 105.487 24.1153 104.792C23.9374 104.097 23.9659 103.366 24.1973 102.687C24.4287 102.008 24.853 101.411 25.4183 100.969C25.9835 100.528 26.6651 100.26 27.3799 100.2C28.3939 100.162 29.3823 100.525 30.1309 101.21C30.8795 101.894 31.3281 102.847 31.3799 103.86Z" fill="#ECEADC" stroke="black" stroke-width="2" stroke-linecap="round" stroke-linejoin="round"/>
<path d="M121.39 95.99C121.391 96.7069 121.184 97.4087 120.793 98.0096C120.402 98.6104 119.844 99.0844 119.188 99.3736C118.532 99.6627 117.806 99.7545 117.099 99.6377C116.392 99.5209 115.734 99.2006 115.205 98.716C114.677 98.2313 114.301 97.6033 114.124 96.9086C113.947 96.2139 113.976 95.4826 114.208 94.8042C114.44 94.1258 114.864 93.5296 115.429 93.0884C115.994 92.6472 116.676 92.3803 117.39 92.3201C118.406 92.2794 119.398 92.6425 120.147 93.3301C120.897 94.0177 121.343 94.974 121.39 95.99Z" fill="#ECEADC" stroke="black" stroke-width="2" stroke-linecap="round" stroke-linejoin="round"/>
<path d="M76.71 99.89C76.7802 100.678 76.6149 101.47 76.2351 102.164C75.8553 102.859 75.2782 103.425 74.5764 103.791C73.8747 104.157 73.0801 104.307 72.2932 104.222C71.5064 104.136 70.7626 103.819 70.156 103.31C69.5495 102.802 69.1074 102.125 68.8858 101.365C68.6642 100.605 68.673 99.7966 68.9112 99.0417C69.1493 98.2869 69.6059 97.6197 70.2234 97.1245C70.8409 96.6293 71.5914 96.3284 72.3799 96.26C73.4352 96.1684 74.4839 96.4991 75.2957 97.1797C76.1074 97.8602 76.616 98.8349 76.71 99.89Z" fill="#ECEADC" stroke="black" stroke-width="2" stroke-linecap="round" stroke-linejoin="round"/>
<path d="M118.66 62.2901L118.3 58.2901C118.224 57.5356 117.852 56.8421 117.265 56.3621C116.678 55.882 115.924 55.6546 115.17 55.73L68.5 59.8101L21.8301 63.89C21.455 63.9179 21.0889 64.0194 20.7532 64.1889C20.4174 64.3583 20.1185 64.5923 19.8733 64.8775C19.6281 65.1626 19.4415 65.4934 19.3242 65.8507C19.207 66.2081 19.1613 66.585 19.1899 66.96L19.54 70.96L16 90.75L16.8799 100.89C16.9654 101.652 17.349 102.348 17.9468 102.828C18.5445 103.308 19.308 103.532 20.0701 103.45L71.9199 98.91L123.77 94.38C124.149 94.3558 124.519 94.2572 124.86 94.0899C125.201 93.9225 125.505 93.6895 125.756 93.4044C126.007 93.1193 126.199 92.7876 126.322 92.4282C126.444 92.0689 126.494 91.689 126.47 91.3101L125.58 81.1701L118.66 62.2901Z" fill="white" stroke="black" stroke-width="2" stroke-linecap="round" stroke-linejoin="round"/>
<path d="M56.76 99.4599C56.7667 99.565 56.7528 99.6705 56.7187 99.7701C56.6846 99.8698 56.6312 99.9618 56.5615 100.041C56.4918 100.12 56.4071 100.184 56.3125 100.23C56.2178 100.277 56.1151 100.304 56.01 100.31L37.25 101.95C37.038 101.973 36.8257 101.911 36.6591 101.778C36.4925 101.645 36.3849 101.452 36.3598 101.24L33.54 69C33.5332 68.8949 33.5472 68.7895 33.5813 68.6898C33.6153 68.5901 33.6688 68.4983 33.7385 68.4193C33.8082 68.3403 33.8926 68.2758 33.9873 68.2296C34.0819 68.1834 34.1849 68.1564 34.29 68.15L53.06 66.51C53.2708 66.4876 53.4819 66.5497 53.6469 66.6828C53.8119 66.816 53.9172 67.0091 53.9399 67.2199L56.76 99.4599Z" fill="#FCC602" stroke="black" stroke-width="2" stroke-linecap="round" stroke-linejoin="round"/>
<path d="M86.9799 96.8101C86.9898 96.915 87.0206 97.0167 87.0705 97.1095C87.1204 97.2023 87.1884 97.2843 87.2704 97.3505C87.3524 97.4166 87.4468 97.4656 87.548 97.4948C87.6493 97.5239 87.7552 97.5325 87.8598 97.52L106.63 95.88C106.841 95.8646 107.038 95.767 107.178 95.6081C107.319 95.4492 107.391 95.2417 107.38 95.0301L104.56 62.7901C104.535 62.5784 104.427 62.3853 104.261 62.2523C104.094 62.1194 103.882 62.0576 103.67 62.0801L84.9098 63.73C84.8047 63.7364 84.702 63.7635 84.6074 63.8097C84.5127 63.8559 84.428 63.9203 84.3583 63.9993C84.2887 64.0783 84.2354 64.1703 84.2014 64.2699C84.1673 64.3696 84.1531 64.475 84.1598 64.5801L86.9799 96.8101Z" fill="#FCC602" stroke="black" stroke-width="2" stroke-linecap="round" stroke-linejoin="round"/>
<path d="M56.87 60.79L30.76 63.07L32.79 58.17L54.02 56.32L56.87 60.79Z" fill="white" stroke="black" stroke-width="2" stroke-linecap="round" stroke-linejoin="round"/>
<path d="M80.13 58.76L106.23 56.47L103.39 52L82.15 53.85L80.13 58.76Z" fill="white" stroke="black" stroke-width="2" stroke-linecap="round" stroke-linejoin="round"/>
<path d="M43.69 67.52L46.6 100.86" stroke="black" stroke-width="2" stroke-linecap="round" stroke-linejoin="round"/>
<path d="M28.1001 89.02C28.3115 89.0046 28.5082 88.907 28.6484 88.7481C28.7886 88.5892 28.8611 88.3817 28.8501 88.1701L27.22 69.5601C27.1949 69.3485 27.0873 69.1553 26.9207 69.0224C26.7541 68.8895 26.542 68.8275 26.3301 68.85L19.4099 69.4501L19.54 70.96L16.1199 90.0701L28.1001 89.02Z" fill="#ECEADC" stroke="black" stroke-width="2" stroke-linecap="round" stroke-linejoin="round"/>
<path d="M94.28 63.09L97.19 96.43" stroke="black" stroke-width="2" stroke-linecap="round" stroke-linejoin="round"/>
<path d="M113.36 81.52C113.255 81.5325 113.149 81.5239 113.048 81.4948C112.947 81.4656 112.852 81.4166 112.77 81.3505C112.688 81.2843 112.62 81.2023 112.571 81.1095C112.521 81.0167 112.49 80.9149 112.48 80.8101L110.85 62.2001C110.843 62.095 110.857 61.9896 110.891 61.8899C110.925 61.7902 110.979 61.6982 111.048 61.6193C111.118 61.5403 111.203 61.4759 111.297 61.4297C111.392 61.3835 111.495 61.3563 111.6 61.35L118.53 60.74L118.66 62.25L125.34 80.48L113.36 81.52Z" fill="#ECEADC" stroke="black" stroke-width="2" stroke-linecap="round" stroke-linejoin="round"/>
<path d="M78.6899 64.2701L73.01 64.7601L69.78 65.0501L59.2399 65.97C59.1352 65.9763 59.0328 66.0035 58.9387 66.0499C58.8445 66.0962 58.7605 66.1608 58.6916 66.2399C58.6227 66.319 58.5705 66.4111 58.5375 66.5107C58.5046 66.6103 58.4918 66.7155 58.4999 66.8201L60.1198 85.4401C60.1322 85.5446 60.1653 85.6455 60.2167 85.7372C60.2682 85.829 60.3372 85.9096 60.4199 85.9747C60.5025 86.0397 60.5972 86.0878 60.6984 86.1161C60.7997 86.1445 60.9055 86.1526 61.01 86.1401L71.55 85.22L75.01 84.9201L80.4499 84.4401C80.555 84.4338 80.658 84.4066 80.7526 84.3604C80.8473 84.3142 80.9317 84.2498 81.0014 84.1708C81.0711 84.0919 81.1246 83.9999 81.1586 83.9002C81.1927 83.8005 81.2067 83.6951 81.1999 83.59L79.57 64.98C79.5601 64.8751 79.5291 64.7734 79.4792 64.6806C79.4293 64.5878 79.3615 64.5058 79.2795 64.4396C79.1975 64.3735 79.1031 64.3245 79.0019 64.2953C78.9006 64.2662 78.7945 64.2576 78.6899 64.2701Z" fill="#ECEADC" stroke="black" stroke-width="2" stroke-linecap="round" stroke-linejoin="round"/>
<path d="M20.0799 109.08H126.49L126.07 99.59L20.0699 108.87" fill="white"/>
<path d="M20.0799 109.08H126.49L126.07 99.59L20.0699 108.87" stroke="black" stroke-width="2" stroke-linecap="round" stroke-linejoin="round"/>
</svg>
