<svg width="120" height="64" viewBox="0 0 120 64" fill="none" xmlns="http://www.w3.org/2000/svg">
<path d="M59.1293 51.4823C61.0434 49.6664 66.0376 45.3945 66.1484 40.3738C66.2544 36.2084 64.2343 32.1495 55.3012 32.5766L52.6462 37.8102C55.8371 37.4908 60.729 37.8102 60.6265 41.9768C60.5205 46.6757 53.2882 53.4047 50.2045 56.2889L49.5661 57.0366L52.6462 56.716C58.8149 55.8618 64.2391 55.4348 67.1096 54.2588C69.9802 53.0829 72.6399 49.2345 72.6399 49.2345L59.1293 51.8029V51.4823ZM91.6711 44.8598C93.5852 43.0439 98.5794 38.772 98.6902 33.7525C98.7962 29.5859 96.7761 25.5282 87.8429 25.9553L85.1844 31.1889C88.3742 30.8683 93.2672 31.1889 93.1647 35.3543C93.0587 40.0532 85.8276 46.7822 82.7427 49.6664L82.1055 50.4141L85.1892 50.0935C91.3567 49.2393 96.7809 48.8123 99.6526 47.6375C102.524 46.4628 105.183 42.6132 105.183 42.6132L91.6759 45.1768L91.6711 44.8598ZM109.537 24.8822C104.859 25.5234 101.557 29.4747 101.456 33.7477C101.349 38.1261 104.646 40.4767 108.9 39.8355C114.004 39.0878 116.881 34.9225 116.982 30.8635C117.083 26.8046 114.323 24.2458 109.537 24.887V24.8822ZM109.112 35.8878C107.304 36.2084 106.135 34.8196 106.135 33.0049C106.135 30.5477 107.729 29.1589 109.325 28.9459C110.922 28.733 112.303 29.5859 112.303 31.8289C112.201 34.1796 110.707 35.6749 109.112 35.8878ZM76.9957 31.5095C72.3159 32.1495 69.0154 36.102 68.9129 40.3738C68.8069 44.7533 72.1039 47.1028 76.3573 46.4628C81.4623 45.7151 84.3376 41.5486 84.44 37.4908C84.44 33.4319 81.6743 30.7619 76.9957 31.5095ZM76.5705 42.5151C74.7624 42.8357 73.5927 41.4469 73.5927 39.6309C73.5927 37.175 75.1876 35.7862 76.7825 35.572C78.3774 35.3579 79.7602 36.2132 79.7602 38.4562C79.6542 40.6944 78.1653 42.2962 76.5705 42.5103V42.5151Z" fill="#ED0080"/>
<path d="M27.65 9.50668C27.4109 9.37982 27.1619 9.27261 26.9055 9.18609H25.8467C25.3154 9.29255 24.7842 9.39902 24.465 9.71962C24.1095 9.91588 23.7878 10.1683 23.5121 10.4673C23.2289 10.7328 23.0105 11.0603 22.8737 11.4243C22.6893 11.7224 22.5463 12.0444 22.4485 12.3813C22.3282 12.6871 22.2567 13.0101 22.2365 13.3383V14.0991C22.2365 14.6327 22.3425 15.1674 22.5557 15.488C22.7689 15.8086 22.9809 16.128 23.3001 16.2357C23.5788 16.4356 23.9106 16.5473 24.253 16.5563C24.5722 16.5563 24.9974 16.5563 25.3166 16.4486C25.6358 16.4486 25.8479 16.3421 26.1671 16.2357C26.4704 16.1363 26.7574 15.9924 27.0187 15.8086C27.2561 15.6628 27.4709 15.4826 27.6559 15.2739C27.7745 15.0792 27.8474 14.8599 27.8691 14.6327C27.8691 14.4197 27.8691 14.3133 27.7631 14.2056C27.6571 14.0979 27.5499 13.9927 27.4439 13.9927C27.3379 13.9927 27.2307 13.885 27.1247 13.885H26.9115C26.831 13.8965 26.7564 13.9343 26.6995 13.9927C26.5923 14.0991 26.5923 14.2056 26.4863 14.3133L26.1671 14.6327C26.022 14.7668 25.833 14.843 25.6358 14.8468H25.1034C24.9974 14.8468 24.7854 14.7403 24.7854 14.6327C24.6782 14.5262 24.5722 14.4197 24.5722 14.3133C24.5722 14.2068 24.4662 13.9927 24.4662 13.885C24.5722 13.885 24.7854 13.7785 24.9974 13.7785C25.2106 13.6721 25.5298 13.6721 25.8479 13.5656C26.1659 13.4591 26.4863 13.3515 26.6995 13.1373C27.0187 13.0309 27.2307 12.8179 27.5499 12.6038C27.7631 12.3897 27.9751 12.0703 28.1884 11.8561C28.3198 11.515 28.3916 11.1536 28.4004 10.7879C28.4004 10.5749 28.4004 10.2543 28.2944 10.0402C27.9692 9.82728 27.8632 9.61315 27.65 9.50668ZM25.5239 12.3897C25.1375 12.6507 24.7036 12.8324 24.247 12.9244C24.247 12.7103 24.353 12.4973 24.353 12.3897C24.3574 12.1918 24.4332 12.0022 24.5662 11.8561C24.6456 11.6953 24.7538 11.5505 24.8855 11.4291C25.0027 11.3166 25.1508 11.242 25.3107 11.2149C25.5239 11.2149 25.7359 11.2149 25.8419 11.3226C25.9479 11.4303 25.9491 11.5355 25.9491 11.7497C26.0551 11.8561 25.8467 12.0655 25.5239 12.3897ZM62.8515 6.72896C63.1707 6.6225 63.4899 6.51603 63.7019 6.3019C64.0211 6.19543 64.2343 5.9813 64.5524 5.76837C64.7656 5.55424 64.9788 5.23364 65.1908 5.0207C65.3227 4.67964 65.3948 4.31822 65.404 3.95244C65.404 3.73831 65.404 3.41771 65.2968 3.20478C65.1896 2.99184 65.0848 2.77771 64.8716 2.67005C64.6321 2.54413 64.3832 2.43734 64.1271 2.35065H63.0635C62.5323 2.45711 62.001 2.56358 61.6818 2.88418C61.2566 3.20478 60.8302 3.41771 60.6182 3.73831C60.3346 4.00351 60.1161 4.33108 59.9798 4.69532C59.7949 4.99319 59.6518 5.31522 59.5545 5.65233C59.4339 5.95811 59.3619 6.28107 59.3413 6.60934V7.357C59.3413 7.89053 59.4485 8.42526 59.6605 8.74586C59.8726 9.06646 60.0858 9.38586 60.405 9.49353C60.6838 9.69315 61.0156 9.80477 61.3578 9.81412C61.6771 9.81412 62.1023 9.81412 62.4215 9.70646C62.7407 9.70646 62.9527 9.59999 63.2719 9.49353C63.5748 9.39411 63.8614 9.2502 64.1224 9.06646C64.3602 8.92069 64.5753 8.74051 64.7608 8.53173C64.8668 8.3188 64.974 8.10467 64.974 7.89053C64.974 7.6764 64.974 7.57113 64.8668 7.46347C64.7596 7.35581 64.6548 7.25053 64.5476 7.25053C64.4404 7.25053 64.3356 7.14287 64.2296 7.14287H64.0211C63.9403 7.15441 63.8654 7.19223 63.8079 7.25053C63.7019 7.357 63.7019 7.46347 63.5959 7.57113L63.2767 7.89053C63.1316 8.02466 62.9426 8.10083 62.7455 8.10467H62.2131C62.107 8.10467 61.8938 7.9982 61.8938 7.89053C61.7878 7.78407 61.6818 7.6776 61.6818 7.57113C61.6818 7.46467 61.5794 7.26369 61.5794 7.16081C61.6866 7.16081 61.8986 7.05435 62.1118 7.05435C62.213 6.9431 62.5323 6.83663 62.8515 6.72896ZM61.5794 5.44777C61.6866 5.3413 61.6866 5.12717 61.7926 4.91304C61.8726 4.7526 61.9807 4.60794 62.1118 4.48597C62.2277 4.37456 62.3741 4.30042 62.5323 4.27304C62.7455 4.27304 62.9575 4.27304 63.0635 4.37951C63.1695 4.48597 63.1707 4.59364 63.1707 4.80657C63.1707 5.12717 62.9575 5.3413 62.6383 5.6607C62.2522 5.92149 61.8187 6.1032 61.3626 6.19543C61.4686 5.87483 61.5794 5.6607 61.5794 5.44777ZM18.9383 10.4721C18.5131 10.5797 18.0879 10.6862 17.7687 10.8991C17.4495 11.1121 17.2363 11.4339 17.0243 11.8561C17.0243 11.642 16.9171 11.4291 16.705 11.2149C16.4114 11.0626 16.072 11.0247 15.7522 11.1085L15.2209 11.2149C15.1149 11.2149 15.0077 11.2149 15.0077 11.3226C14.9341 11.4121 14.8963 11.526 14.9017 11.642C14.9073 11.9307 14.8716 12.2188 14.7957 12.4973C14.7957 12.9244 14.6885 13.4543 14.6885 13.9927C14.6885 14.531 14.5825 15.1674 14.5825 15.7009C14.5825 16.3421 14.4765 16.8757 14.4765 17.4104C14.4765 17.9451 14.3705 18.3674 14.3705 18.7992V19.4392C14.3541 19.624 14.3909 19.8096 14.4765 19.974C14.4765 20.0804 14.5825 20.1869 14.6885 20.2946C14.7945 20.4022 14.9017 20.401 15.1149 20.5075H15.7522L16.1774 20.401C16.2846 20.401 16.3906 20.401 16.3906 20.2946C16.4481 20.2366 16.4854 20.1615 16.4966 20.0804C16.4966 19.6534 16.6038 19.3328 16.6038 19.1234V17.6281C16.5937 17.3745 16.6296 17.1211 16.7098 16.8804C16.8158 17.201 17.029 17.4152 17.3482 17.6281C17.6806 17.7817 18.0545 17.8196 18.4107 17.7358C18.8371 17.6281 19.2623 17.5216 19.5815 17.201C19.9499 16.9375 20.272 16.614 20.5344 16.244C20.8523 15.8375 21.071 15.3619 21.1728 14.8552C21.3019 14.2582 21.3729 13.65 21.3848 13.0392C21.3848 11.9706 21.1724 11.2229 20.7476 10.7963C20.3129 10.4673 19.6744 10.3608 18.93 10.4673L18.9383 10.4721ZM18.6191 15.5992C18.529 15.7896 18.396 15.9563 18.2306 16.086C18.0652 16.2158 17.872 16.3051 17.6663 16.3469C17.4827 16.3633 17.2983 16.3263 17.135 16.2404C17.029 16.1328 16.9218 16.0263 16.8158 15.9198C16.7098 15.8134 16.7098 15.5992 16.7098 15.3851V14.7451C16.6912 14.1932 16.8005 13.6444 17.029 13.1421C17.1192 12.9518 17.2523 12.7852 17.4177 12.6554C17.5831 12.5257 17.7762 12.4363 17.9819 12.3945H18.5143C18.6203 12.5021 18.7263 12.6086 18.8335 12.7151C18.9407 12.8215 18.9395 13.0357 18.9395 13.2498V13.8898C19.036 14.5262 18.8192 15.1674 18.6108 15.5945L18.6191 15.5992ZM6.59388 10.8943H6.48668L2.02485 11.7497C1.96982 11.7533 1.91798 11.7769 1.87898 11.8161C1.83998 11.8553 1.81647 11.9073 1.81284 11.9626V12.8179C1.81284 13.245 1.70683 13.6721 1.70683 14.2056C1.70683 14.7391 1.59963 15.2739 1.59963 15.9151C1.59963 16.5563 1.49363 17.0898 1.49363 17.6233C1.49363 18.1569 1.38762 18.5803 1.38762 19.0122V19.8663C1.38762 20.1869 1.49363 20.5075 1.70683 20.614C2.00002 20.7678 2.33981 20.8062 2.6597 20.7216L5.53142 20.1869C5.95664 20.0804 6.16985 19.974 6.27586 19.8663C6.38186 19.4392 6.48787 19.2263 6.48787 19.0122V18.2645C6.48787 18.158 6.48787 18.158 6.38186 18.158H6.27586L3.51014 18.6916L3.61734 16.7692L4.68098 16.5563C5.1062 16.4486 5.31822 16.3421 5.42542 16.2357C5.53142 16.0215 5.63743 15.8086 5.63743 15.5945V14.8468C5.63743 14.7403 5.63743 14.7403 5.53142 14.7403H5.42542L3.61615 15.0561L3.72216 13.2402L5.74701 12.8132C6.17342 12.7055 6.38544 12.599 6.49144 12.4926C6.60989 12.2978 6.68279 12.0785 6.70465 11.8514V11.1085C6.69988 10.8943 6.69988 10.8943 6.59388 10.8943ZM58.1681 3.84597C57.9424 3.71144 57.686 3.63768 57.4237 3.63184H56.36C55.8288 3.73831 55.4072 3.84597 55.0844 4.05891C54.742 4.2745 54.4226 4.52505 54.1315 4.80657C53.9195 5.12717 53.7063 5.3413 53.4943 5.6607C53.3248 6.005 53.1826 6.36219 53.069 6.72896C52.9618 7.04956 52.9618 7.37016 52.8558 7.58429V8.33196C52.8363 8.84935 52.946 9.36342 53.1751 9.82728C53.3341 10.1488 53.5505 10.4383 53.8135 10.6814C54.0921 10.8814 54.424 10.993 54.7663 11.002H55.7192C55.9814 10.9951 56.2376 10.9214 56.4637 10.7879L57.1009 10.4673C57.2619 10.3893 57.4072 10.2822 57.5297 10.1515L57.7417 9.93853C57.7417 9.83207 57.8477 9.83207 57.8477 9.7244C57.8477 9.61674 57.9549 9.51147 57.9549 9.40381C57.9549 9.29614 58.0609 9.19087 58.0609 9.0844V8.87027C58.0671 8.82673 58.0631 8.78234 58.0492 8.74062C58.0353 8.6989 58.012 8.66099 57.981 8.62989C57.9501 8.59879 57.9123 8.57535 57.8708 8.56143C57.8292 8.54751 57.7851 8.54348 57.7417 8.54967C57.6613 8.56088 57.5868 8.59829 57.5297 8.65614C57.5297 8.54967 57.4225 8.54967 57.3165 8.65614C57.2105 8.76261 56.9973 8.87027 56.8913 8.97674C56.6973 9.09571 56.479 9.16892 56.2528 9.19087C55.8276 9.29734 55.5084 9.19087 55.4024 8.97674C55.1892 8.76381 55.0832 8.33674 55.0832 7.80201V7.16081C55.0832 6.94788 55.1892 6.62728 55.1892 6.41315C55.2964 6.20022 55.4024 5.87962 55.5084 5.77315C55.614 5.55862 55.8268 5.45176 56.1468 5.45255H56.466C56.572 5.45255 56.572 5.55902 56.6781 5.66549C56.6781 5.77315 56.7852 5.87962 56.7852 6.09375V6.6225C56.7852 6.72896 56.7853 6.72896 56.8913 6.72896H57.1033C57.6357 6.6225 58.0561 6.40837 58.2741 6.19543C58.4184 6.05918 58.5316 5.89312 58.6058 5.70869C58.6801 5.52427 58.7136 5.32587 58.7041 5.12717C58.721 4.90785 58.6842 4.68771 58.5969 4.48597C58.5201 4.23569 58.3723 4.0133 58.1717 3.84597H58.1681ZM13.1866 17.5169C12.9745 17.3039 12.8685 16.9833 12.5493 16.6627C12.2703 16.2411 11.9512 15.8477 11.5965 15.488C12.1289 14.9533 12.6601 14.531 12.9793 14.0991C13.2985 13.6673 13.5105 13.3515 13.5105 12.9244C13.527 12.7396 13.4902 12.554 13.4045 12.3897C13.3245 12.2292 13.2164 12.0846 13.0853 11.9626L12.7661 11.642C12.7111 11.5813 12.6355 11.5433 12.5541 11.5355C12.4469 11.5355 12.3409 11.642 12.2349 11.8561C12.131 12.0929 11.9872 12.3099 11.8097 12.4973C11.7025 12.8179 11.4905 13.0309 11.3844 13.3515C11.1712 13.6721 11.0652 13.9927 10.852 14.2056L10.316 13.1421C10.2356 12.9819 10.1275 12.8373 9.99682 12.7151C9.89082 12.6086 9.78362 12.5021 9.67761 12.3945C9.5716 12.2868 9.3584 12.288 9.14638 12.288C8.85864 12.2769 8.571 12.3128 8.29475 12.3945C7.97554 12.5021 7.76353 12.5021 7.65752 12.6086C7.6023 12.7253 7.53048 12.8333 7.44432 12.9292C7.43727 12.9872 7.44312 13.046 7.46145 13.1015C7.47978 13.1569 7.51013 13.2076 7.55032 13.2498C7.65752 13.3563 7.76353 13.5704 7.97554 13.7833C8.18756 13.9963 8.29475 14.318 8.61397 14.6375C8.88661 15.0132 9.13526 15.406 9.3584 15.8134C8.93318 16.1328 8.61397 16.3469 8.40553 16.6675C8.14177 16.8231 7.922 17.0438 7.7671 17.3087C7.58924 17.4955 7.44533 17.7121 7.34188 17.9487C7.26418 18.1158 7.22742 18.2991 7.23468 18.4834C7.23468 18.6964 7.23468 18.9105 7.34188 19.017C7.34188 19.2311 7.44789 19.3376 7.66109 19.444C7.7671 19.5517 7.87311 19.5517 7.97911 19.6582H8.29833C8.35368 19.6545 8.40582 19.6308 8.44504 19.5914C8.48427 19.552 8.5079 19.4996 8.51153 19.444C8.64073 19.281 8.74805 19.1016 8.83074 18.9105C8.9915 18.6135 9.16762 18.3252 9.3584 18.0468C9.5716 17.7262 9.78362 17.2991 10.1028 16.8709L10.6352 17.8279C10.8473 18.1485 11.0605 18.4691 11.3797 18.5755C11.6977 18.7897 12.0169 18.7897 12.4421 18.682L13.2938 18.5755C13.3998 18.5755 13.5058 18.4691 13.613 18.4691C13.719 18.3614 13.719 18.3614 13.719 18.2549C13.7112 18.1732 13.6734 18.0973 13.613 18.042C13.4463 17.8886 13.3026 17.7117 13.1866 17.5169ZM34.0307 8.11782C33.9246 8.01136 33.7126 8.01136 33.6054 7.90369H33.0742C32.9682 7.90369 32.755 8.01136 32.649 8.01136C32.4358 8.11782 32.3298 8.11782 32.2238 8.33196C32.0336 8.41599 31.8816 8.56828 31.7974 8.75902C31.6913 8.97196 31.5853 9.07962 31.4793 9.29255C31.4864 9.23447 31.4804 9.17553 31.4619 9.12006C31.4433 9.06459 31.4127 9.01398 31.3721 8.97195C31.3721 8.86549 31.2661 8.75902 31.1601 8.65136C30.9469 8.65136 30.8409 8.54489 30.7349 8.54489H30.0965L29.5641 8.65136C29.352 8.65136 29.352 8.86549 29.352 9.07962C29.246 10.0366 29.246 10.7879 29.1388 11.4291C29.1388 12.0703 29.0328 12.6038 29.0328 13.0309C29.0328 13.4579 28.9268 13.7785 28.9268 13.9879V14.5214C28.9104 14.7062 28.9472 14.8918 29.0328 15.0561C29.0328 15.1626 29.1388 15.2691 29.246 15.3755C29.3532 15.482 29.4581 15.4832 29.6713 15.5897H30.3085L30.7349 15.4832C30.8409 15.4832 30.8409 15.4832 30.9469 15.3755C31.0529 15.3755 31.0529 15.2691 31.0529 15.1626V14.6279C31.0417 14.3392 31.078 14.0506 31.1601 13.7737C31.1432 13.4511 31.179 13.1278 31.2661 12.8167C31.2494 12.4941 31.2852 12.1708 31.3721 11.8597C31.3721 11.2185 31.4793 10.7915 31.6914 10.4709C31.7974 10.1503 32.0106 9.93734 32.3298 9.93734C32.3875 9.93026 32.4461 9.93614 32.5013 9.95455C32.5565 9.97296 32.6069 10.0034 32.649 10.0438C32.649 10.1503 32.755 10.2579 32.755 10.4709V11.1085C32.7547 11.1225 32.7572 11.1365 32.7624 11.1496C32.7676 11.1627 32.7754 11.1745 32.7853 11.1845C32.7952 11.1944 32.807 11.2023 32.8201 11.2075C32.8331 11.2127 32.847 11.2153 32.861 11.2149H33.3934C33.619 11.1929 33.8368 11.1201 34.0307 11.002C34.2439 10.8943 34.3499 10.6814 34.4571 10.5749L34.7751 9.93375C34.8624 9.73201 34.8992 9.51187 34.8823 9.29255C34.8991 9.07324 34.8623 8.85312 34.7751 8.65136C34.2439 8.33195 34.1378 8.22429 34.0307 8.11782ZM43.9167 6.51603C43.6775 6.38939 43.4285 6.28218 43.1723 6.19543H42.1086C41.5774 6.3019 41.045 6.40837 40.7258 6.72896C40.37 6.92477 40.0482 7.17727 39.7729 7.47663C39.4894 7.74183 39.2708 8.0694 39.1345 8.43364C38.9496 8.7315 38.8065 9.05354 38.7093 9.39065C38.5886 9.69643 38.5167 10.0194 38.4961 10.3477V11.1085C38.4961 11.642 38.6032 12.1767 38.8153 12.4973C39.0273 12.8179 39.2405 13.1373 39.5597 13.245C39.8385 13.4446 40.1703 13.5562 40.5126 13.5656C40.8318 13.5656 41.257 13.5656 41.5762 13.4579C41.8954 13.4579 42.1074 13.3515 42.4267 13.245C42.7296 13.1456 43.0162 13.0017 43.2771 12.8179C43.5149 12.6722 43.73 12.492 43.9155 12.2832C44.0215 12.0703 44.1287 11.8561 44.1287 11.642C44.1287 11.4279 44.1287 11.3226 44.0215 11.2149C43.9143 11.1073 43.8095 11.002 43.7023 11.002C43.5951 11.002 43.4903 10.8943 43.3843 10.8943H43.177C43.0962 10.9059 43.0213 10.9437 42.9638 11.002C42.8578 11.1085 42.8578 11.2149 42.7518 11.3226L42.4326 11.642C42.2875 11.7761 42.0985 11.8523 41.9014 11.8561H41.369C41.263 11.8561 41.0498 11.7497 41.0498 11.642C40.9437 11.5355 40.8377 11.4291 40.8377 11.3226C40.8377 11.2161 40.7305 11.002 40.7305 10.8943C40.8377 10.8943 41.0497 10.7879 41.263 10.7879C41.475 10.6814 41.7942 10.6814 42.1134 10.5749C42.4326 10.4685 42.7518 10.3608 42.9638 10.1467C43.283 10.0402 43.4962 9.82728 43.8155 9.61315C44.0275 9.39902 44.2407 9.07962 44.4527 8.86549C44.5852 8.52459 44.6573 8.16307 44.6659 7.79723C44.6659 7.58429 44.6659 7.26369 44.5599 7.04956C44.2407 6.83663 44.1347 6.6225 43.9215 6.51603H43.9167ZM41.7894 9.39902C41.4168 9.66751 40.9722 9.81678 40.5138 9.82728C40.5138 9.61315 40.6198 9.50668 40.6198 9.29255C40.6236 9.09453 40.6994 8.90475 40.833 8.75902C40.9118 8.59787 41.0201 8.45301 41.1522 8.33196C41.2689 8.21876 41.4173 8.14406 41.5774 8.11782C41.7894 8.11782 42.0026 8.11782 42.1086 8.22429C42.2146 8.33076 42.2146 8.43842 42.2146 8.65136C42.3266 8.86549 42.1134 9.18609 41.7942 9.39902H41.7894ZM51.3658 5.12717L50.7274 4.80657C50.4065 4.80009 50.0861 4.83588 49.7745 4.91304C49.3493 4.91304 48.9229 5.12717 48.6048 5.3413C48.2868 5.55543 47.9664 5.9813 47.7532 6.40837C47.7577 6.25892 47.7211 6.11112 47.6472 5.9813C47.6472 5.87483 47.5412 5.76837 47.434 5.6607C47.3268 5.55304 47.222 5.55424 47.0088 5.44777H46.3715L45.8391 5.55424C45.7331 5.55424 45.6271 5.55424 45.6271 5.6607C45.5529 5.75046 45.5147 5.86476 45.5199 5.9813C45.4139 6.93831 45.4139 7.69076 45.3079 8.33196C45.3079 8.97196 45.2007 9.50668 45.2007 9.93375C45.2007 10.3608 45.0947 10.6814 45.0947 10.8908V11.4255C45.0783 11.6099 45.1151 11.7951 45.2007 11.959C45.2007 12.0667 45.3079 12.1732 45.4139 12.2796C45.5199 12.3861 45.6271 12.3861 45.8391 12.4937H46.4775L46.9028 12.3861C47.0088 12.3861 47.116 12.3861 47.116 12.2796C47.1736 12.2222 47.2108 12.1474 47.222 12.0667C47.328 10.9984 47.328 10.1431 47.434 9.5031C47.54 8.8631 47.6472 8.32837 47.7532 7.9001C47.8592 7.47184 48.0724 7.15244 48.2856 7.04597C48.3793 6.94166 48.4943 6.85898 48.6228 6.80364C48.7513 6.74829 48.8903 6.72159 49.0301 6.72538C49.3493 6.61891 49.5613 6.72538 49.6673 6.83304C49.7733 6.9407 49.7745 7.15244 49.7745 7.36657V8.11782C49.7745 8.43842 49.6673 8.75902 49.6673 9.07483C49.6673 9.39065 49.5613 9.71483 49.5613 10.0318V10.7795C49.5613 10.9936 49.5613 11.1001 49.6673 11.2066C49.6673 11.3142 49.7745 11.4207 49.8805 11.5272C49.9865 11.6336 50.0937 11.6336 50.3057 11.6336H50.9441L51.3694 11.5272C51.4754 11.5272 51.5826 11.4207 51.6886 11.4207C51.7404 11.3201 51.7761 11.2119 51.7946 11.1001V10.673C51.7844 10.4194 51.8204 10.1661 51.9006 9.92538C51.8837 9.60262 51.9199 9.27928 52.0078 8.96837C52.0078 8.64777 52.1138 8.32837 52.1138 8.01136C52.0966 7.72213 52.1326 7.4322 52.2198 7.15603V6.6225C52.2198 6.19543 52.2198 5.87483 52.1138 5.55424C51.685 5.44777 51.5742 5.23364 51.3658 5.12717ZM37.1156 7.58429C37.0737 7.54358 37.0233 7.51277 36.9681 7.49415C36.9129 7.47552 36.8542 7.46953 36.7964 7.47663H36.1579L35.6267 7.58429C35.5195 7.58429 35.4135 7.58429 35.4135 7.69076C35.3396 7.78063 35.3018 7.89496 35.3075 8.01136C35.2015 8.96837 35.2015 9.71962 35.0943 10.3608C35.0943 11.002 34.9883 11.5355 34.9883 11.9626C34.9883 12.3897 34.8823 12.7103 34.8823 12.9196V13.4532C34.8659 13.6379 34.9027 13.8235 34.9883 13.9879C34.9883 14.0943 35.0943 14.2008 35.2015 14.3085C35.3087 14.4161 35.4135 14.4149 35.6267 14.5214H36.2639L36.6904 14.4149C36.7964 14.4149 36.9024 14.4149 36.9024 14.3085C36.9599 14.2506 36.9971 14.1754 37.0084 14.0943C37.1156 13.1373 37.1156 12.3849 37.2216 11.7449C37.2216 11.1037 37.3276 10.5702 37.3276 10.1419C37.3276 9.71364 37.3276 9.39424 37.4348 9.07483V8.5401C37.4348 8.32717 37.4348 8.21951 37.3276 8.11304C37.3364 8.01435 37.3217 7.91497 37.2849 7.82306C37.248 7.73115 37.19 7.64932 37.1156 7.58429ZM37.5408 4.91304C37.3276 4.80657 37.1156 4.80657 36.7964 4.80657C36.3711 4.91304 36.0519 5.0207 35.8435 5.23364C35.6302 5.46447 35.514 5.76928 35.5195 6.08418C35.5195 6.61771 35.8387 6.83184 36.5832 6.72418C37.0084 6.61771 37.3276 6.51124 37.6468 6.19065C37.8598 5.9585 37.9743 5.6521 37.966 5.33652L37.5408 4.91304Z" fill="black"/>
<path d="M71.7847 55.2206C71.5871 55.2245 71.3978 55.3006 71.2523 55.4348C71.1403 55.5524 71.0664 55.7012 71.0402 55.8618C71.0402 56.1824 71.2522 56.2889 71.5715 56.1824C71.7689 56.178 71.958 56.1019 72.1039 55.9683C72.3159 55.8618 72.3159 55.7542 72.3159 55.5412C72.323 55.4832 72.3172 55.4244 72.2989 55.3689C72.2805 55.3135 72.2501 55.2628 72.2099 55.2206H71.7847ZM79.123 55.4348C79.0158 55.3271 78.9098 55.3271 78.6966 55.3271H78.1653C77.9031 55.334 77.647 55.4077 77.4209 55.5412C77.2077 55.6477 76.9957 55.7542 76.8897 55.9683C76.7596 56.1307 76.6522 56.3102 76.5705 56.5018C76.4633 56.716 76.4633 56.8224 76.3573 57.0366C76.3573 57.2495 76.2513 57.3572 76.2513 57.5701V58.0019C76.2513 58.3225 76.2513 58.5367 76.3573 58.7496C76.437 58.9106 76.5451 59.0557 76.6765 59.1779C76.7825 59.2843 76.9957 59.2843 77.2077 59.2843H77.7401C77.8461 59.2843 78.0593 59.1779 78.1653 59.1779C78.2713 59.0702 78.4846 59.0702 78.5906 58.9637L78.9098 58.6431C78.9501 58.601 78.9805 58.5503 78.9989 58.4949C79.0172 58.4394 79.023 58.3805 79.0158 58.3225C79.0158 58.2161 79.0158 58.1096 78.9098 58.1096L78.8038 58.0019H78.4845C78.4704 58.0016 78.4564 58.0042 78.4433 58.0095C78.4302 58.0148 78.4184 58.0227 78.4084 58.0328C78.3985 58.0429 78.3907 58.0549 78.3856 58.0681C78.3804 58.0813 78.3781 58.0954 78.3785 58.1096L78.2713 58.2161L78.1653 58.3225C78.0593 58.3225 78.0593 58.4302 77.9521 58.4302H77.6341C77.5269 58.4302 77.5269 58.3225 77.4209 58.3225C77.3633 58.2651 77.3261 58.1903 77.3149 58.1096V57.8955C77.3726 57.9025 77.4312 57.8967 77.4864 57.8783C77.5416 57.8598 77.5921 57.8294 77.6341 57.789C77.7401 57.789 77.9521 57.6825 78.0593 57.6825C78.1653 57.5749 78.3785 57.5749 78.4845 57.4684C78.5906 57.3619 78.8038 57.2543 78.9098 57.1478C79.0414 57.0263 79.1496 56.8816 79.229 56.7207C79.335 56.6143 79.335 56.4001 79.335 56.1872C79.3422 56.1292 79.3364 56.0703 79.3181 56.0149C79.2998 55.9594 79.2693 55.9087 79.229 55.8666C79.335 55.6477 79.229 55.5412 79.123 55.4348ZM78.0593 56.9253C77.8461 57.0318 77.6341 57.1382 77.4209 57.1382C77.4139 57.0802 77.4197 57.0214 77.438 56.966C77.4564 56.9105 77.4867 56.8599 77.5269 56.8176C77.5269 56.7112 77.6341 56.6047 77.6341 56.497C77.6377 56.4418 77.6612 56.3897 77.7003 56.3505C77.7393 56.3114 77.7911 56.2878 77.8461 56.2841C77.9521 56.1776 77.9521 56.1776 78.0593 56.1776C78.1665 56.1776 78.2713 56.1776 78.2713 56.2841C78.3785 56.3906 78.3785 56.3906 78.3785 56.497C78.2713 56.716 78.2713 56.8224 78.0593 56.9253ZM69.9766 56.2841C69.7993 56.1325 69.5705 56.0558 69.3382 56.07C69.0172 56.0634 68.6968 56.0996 68.3853 56.1776C68.2781 56.1776 68.0661 56.2841 67.7469 56.2841C67.5337 56.3906 67.2156 56.3906 66.8964 56.497H66.7892V57.7794C66.797 58.1385 66.7614 58.4972 66.6832 58.8477V60.6636C66.6751 60.7216 66.6805 60.7807 66.699 60.8362C66.7175 60.8918 66.7485 60.9423 66.7898 60.9837C66.831 61.0251 66.8813 61.0563 66.9366 61.0749C66.9919 61.0934 67.0507 61.0989 67.1084 61.0907H67.5349C67.7481 61.0907 67.8541 60.983 68.0673 60.983C68.4925 60.8766 68.9177 60.7701 69.2369 60.556C69.5355 60.3631 69.7894 60.1082 69.9814 59.8083C70.1669 59.5108 70.31 59.1887 70.4066 58.8513C70.5126 58.5307 70.5126 58.1036 70.5126 57.783C70.5126 57.4624 70.5126 57.1418 70.4066 56.9289C70.2958 56.6095 70.1898 56.3954 69.9766 56.2889V56.2841ZM69.2322 58.5271C69.2322 58.74 69.1261 58.9542 69.1261 59.0606C69.0463 59.2212 68.9382 59.3659 68.8069 59.4877C68.6615 59.622 68.4721 59.6982 68.2745 59.7018H67.9565V57.0366C68.0141 57.0437 68.0725 57.0379 68.1275 57.0194C68.1825 57.001 68.2328 56.9705 68.2745 56.9301H68.9129C68.9681 56.9337 69.0201 56.9573 69.0593 56.9964C69.0985 57.0356 69.1222 57.0876 69.1261 57.143C69.1664 57.1852 69.1968 57.2359 69.2151 57.2913C69.2335 57.3468 69.2393 57.4056 69.2322 57.4636V58.5319V58.5271ZM75.932 55.9683C75.826 55.9683 75.7188 55.8618 75.6128 55.8618H75.0816C74.9744 55.8618 74.9744 55.8618 74.8684 55.9683C74.8687 55.9824 74.8662 55.9964 74.861 56.0094C74.8558 56.0225 74.848 56.0344 74.8381 56.0443C74.8282 56.0543 74.8164 56.0621 74.8033 56.0673C74.7903 56.0726 74.7764 56.0751 74.7624 56.0748C74.6564 56.3954 74.6564 56.716 74.5492 56.9301C74.4704 57.1338 74.4343 57.3517 74.4432 57.5701C74.4432 57.7842 74.3372 57.9972 74.3372 58.2113C74.3372 58.4254 74.23 58.6384 74.23 58.7448C74.2371 58.687 74.2313 58.6283 74.2129 58.5731C74.1946 58.5178 74.1642 58.4674 74.124 58.4254C74.124 58.3177 74.124 58.1048 74.018 57.9972C74.018 57.8907 74.018 57.6778 73.912 57.5701C73.912 57.4636 73.912 57.2495 73.8048 57.143V56.6095C73.7938 56.5283 73.7566 56.4531 73.6987 56.3954C73.6987 56.2889 73.5927 56.2889 73.4855 56.2889H73.1675C72.9842 56.2816 72.8017 56.3181 72.6351 56.3954C72.5291 56.3954 72.5291 56.3954 72.5291 56.5018L72.4231 56.6095V56.716C72.4231 56.8224 72.4231 56.8224 72.5291 57.0366C72.5291 57.143 72.6351 57.3572 72.6351 57.4636C72.7411 57.6777 72.7411 57.8907 72.8483 58.2113C72.9555 58.5319 73.0603 58.8525 73.1675 59.2795C73.1675 59.386 73.1675 59.386 73.2735 59.4925C73.2735 59.6001 73.3795 59.6001 73.3795 59.7066L73.4855 59.8131H73.6987L74.23 59.7066H74.3372C74.3512 59.7069 74.3651 59.7044 74.3781 59.6992C74.3911 59.6939 74.4029 59.6861 74.4129 59.6762C74.4228 59.6662 74.4306 59.6543 74.4358 59.6413C74.441 59.6282 74.4435 59.6142 74.4432 59.6001C74.4432 59.4925 74.5492 59.386 74.6564 59.2795C74.7624 59.0654 74.8684 58.9589 74.9744 58.6383C75.0804 58.3178 75.1876 58.2113 75.2936 57.8907C75.4008 57.6778 75.5068 57.3572 75.6128 57.143C75.7188 56.9289 75.7188 56.716 75.826 56.5018C75.826 56.2889 75.932 56.1824 75.932 56.0748C76.0381 56.0748 76.0381 56.0748 75.932 55.9683ZM72.0014 56.716C71.9443 56.6581 71.8698 56.6207 71.7894 56.6095H71.151V56.8224C71.151 57.3572 71.045 57.6778 71.045 57.9972C71.045 58.3166 71.045 58.6383 70.939 58.8525V59.916C70.939 60.0224 71.045 60.0224 71.045 60.1289C71.1021 60.1867 71.1766 60.2241 71.257 60.2354H71.8954V60.1289C71.8954 59.7018 72.0014 59.2748 72.0014 58.9542C72.0014 58.6336 72.0014 58.313 72.1086 58.1V57.0318C72.1039 56.8224 72.1039 56.716 71.9967 56.716H72.0014ZM109.117 50.5205H109.33C109.344 50.5202 109.358 50.5227 109.371 50.5281C109.385 50.5334 109.396 50.5413 109.406 50.5514C109.416 50.5615 109.424 50.5735 109.429 50.5867C109.434 50.5999 109.437 50.614 109.436 50.6282V50.944H109.542C109.74 50.9396 109.929 50.8635 110.075 50.7299C110.186 50.6121 110.26 50.4633 110.287 50.3028C110.283 50.1047 110.207 49.9147 110.075 49.7681C109.861 49.6616 109.649 49.6616 109.223 49.6616C109.011 49.6616 108.905 49.7681 108.692 49.7681C108.532 49.8482 108.388 49.9568 108.267 50.0887C108.161 50.1963 108.053 50.4093 107.947 50.5157C107.841 50.7299 107.841 50.8363 107.841 51.1569C107.825 51.3417 107.862 51.5273 107.947 51.6917C108.053 51.7981 108.053 51.9046 108.161 52.0111C108.202 52.0518 108.252 52.0827 108.307 52.1013C108.362 52.1199 108.421 52.1259 108.479 52.1187C108.586 52.1187 108.692 52.2252 108.798 52.2252C108.879 52.2361 108.954 52.2736 109.011 52.3317C109.117 52.3317 109.117 52.4393 109.117 52.5458C109.117 52.6523 109.117 52.6523 109.011 52.7587C108.905 52.7587 108.798 52.8664 108.692 52.8664H108.151C108.044 52.8664 108.044 52.8664 108.044 52.7587H107.938C107.832 52.7587 107.832 52.7587 107.725 52.8664L107.619 52.9729C107.619 53.0793 107.513 53.0793 107.513 53.187V53.2935C107.513 53.3999 107.513 53.5064 107.619 53.5064C107.725 53.5064 107.832 53.614 107.938 53.614H108.788C109.213 53.5064 109.533 53.3999 109.741 53.0793C109.954 52.8471 110.069 52.5407 110.06 52.2252C110.06 52.0111 110.06 51.9046 109.953 51.7981C109.846 51.6917 109.741 51.584 109.635 51.584C109.528 51.4775 109.422 51.4775 109.209 51.4775C109.06 51.4821 108.913 51.4452 108.784 51.3711C108.678 51.3711 108.572 51.2634 108.464 51.2634C108.357 51.2634 108.358 51.1569 108.358 51.0505C108.358 50.944 108.358 50.8363 108.464 50.8363C108.9 50.6282 109.006 50.5205 109.112 50.5205H109.117ZM115.817 51.2682H115.711C115.697 51.2685 115.683 51.266 115.67 51.2607C115.657 51.2555 115.645 51.2477 115.635 51.2377C115.625 51.2278 115.618 51.2159 115.612 51.2028C115.607 51.1898 115.605 51.1758 115.605 51.1617C115.547 51.1045 115.509 51.0297 115.498 50.9488V49.6664C115.498 49.3458 115.392 49.0252 115.178 48.9187C114.966 48.7058 114.647 48.7058 114.116 48.8123C113.89 48.8341 113.672 48.9069 113.478 49.0252C113.318 49.1053 113.174 49.214 113.052 49.3458L112.733 49.6664C112.627 49.7729 112.627 49.987 112.627 50.0935C112.627 50.4141 112.839 50.5205 113.264 50.5205H113.372L113.478 50.414C113.478 50.3076 113.478 50.3076 113.584 50.2011C113.584 50.0935 113.584 50.0935 113.69 49.987L113.797 49.8805C113.903 49.8805 113.903 49.7729 114.009 49.7729C114.222 49.7729 114.328 49.7729 114.328 49.8805C114.328 49.9882 114.434 50.0935 114.434 50.2011V50.414C113.859 50.4953 113.311 50.7153 112.839 51.0552C112.52 51.3758 112.308 51.6964 112.308 52.1235C112.308 52.23 112.308 52.4441 112.414 52.5506C112.418 52.6059 112.442 52.658 112.481 52.6972C112.52 52.7363 112.572 52.7599 112.627 52.7635C112.669 52.8043 112.719 52.8351 112.774 52.8538C112.829 52.8724 112.888 52.8783 112.945 52.8712H113.264C113.584 52.8712 113.797 52.7635 113.903 52.5506C114.116 52.4441 114.222 52.23 114.328 52.1235C114.33 52.2062 114.349 52.2875 114.386 52.3614C114.423 52.4353 114.476 52.4999 114.541 52.5506C114.647 52.657 114.753 52.657 114.966 52.657C115.072 52.657 115.286 52.5506 115.392 52.5506C115.447 52.5469 115.499 52.5232 115.538 52.4838C115.578 52.4444 115.601 52.392 115.605 52.3364C115.645 52.2943 115.676 52.2437 115.694 52.1882C115.712 52.1327 115.718 52.0738 115.711 52.0158C115.817 51.5888 115.923 51.4823 115.817 51.2682ZM114.328 51.1617C114.317 51.2428 114.28 51.3179 114.222 51.3758L114.009 51.5888C113.903 51.5888 113.903 51.6964 113.797 51.6964H113.584C113.478 51.6964 113.478 51.5888 113.478 51.4823C113.478 51.3758 113.478 51.2682 113.584 51.2682C113.584 51.1617 113.69 51.1617 113.797 51.0552C113.903 51.0552 114.009 50.9488 114.116 50.9488C114.223 50.9488 114.328 50.8411 114.434 50.8411C114.441 50.8995 114.434 50.9586 114.415 51.0141C114.396 51.0696 114.364 51.12 114.323 51.1617H114.328ZM57.6452 58.1L54.6675 58.6336C54.5615 58.6336 54.5615 58.6336 54.4543 58.74C54.4402 58.7399 54.4263 58.7425 54.4133 58.7479C54.4002 58.7533 54.3884 58.7612 54.3785 58.7713C54.3687 58.7813 54.3609 58.7933 54.3557 58.8064C54.3505 58.8195 54.348 58.8336 54.3483 58.8477C54.2907 58.9051 54.2534 58.9799 54.2423 59.0606V59.5954C54.2423 59.7018 54.2423 59.7018 54.3483 59.7018L55.4119 59.4877V62.6925C55.4119 62.9066 55.4119 63.0131 55.5179 63.1195C55.6239 63.226 55.8371 63.226 56.0504 63.1195L56.3684 63.0131C56.3824 63.0134 56.3964 63.0109 56.4095 63.0057C56.4226 63.0004 56.4345 62.9926 56.4445 62.9827C56.4545 62.9727 56.4624 62.9609 56.4677 62.9478C56.4731 62.9348 56.4757 62.9207 56.4756 62.9066L56.6876 59.2748L57.432 59.1683C57.5143 59.1666 57.5952 59.1466 57.6687 59.1095C57.7423 59.0725 57.8067 59.0194 57.8572 58.9542C57.8979 58.9122 57.9286 58.8616 57.9471 58.8061C57.9657 58.7506 57.9716 58.6917 57.9644 58.6336L57.6452 58.1ZM64.5535 58.1C64.4475 57.9924 64.3415 57.9924 64.1283 57.9924H63.5971C63.3348 57.9988 63.0786 58.0725 62.8527 58.2065C62.6395 58.313 62.4275 58.4206 62.3203 58.6336C62.1908 58.7967 62.0839 58.9765 62.0022 59.1683C61.895 59.3812 61.895 59.4877 61.789 59.7018C61.789 59.916 61.683 60.0224 61.683 60.2354V60.6636C61.683 60.983 61.683 61.1972 61.789 61.4113C61.8691 61.5717 61.9772 61.7164 62.1082 61.8383C62.2143 61.9448 62.4275 61.9448 62.6395 61.9448H63.1719C63.2779 61.9448 63.4911 61.8383 63.5971 61.8383C63.7031 61.7307 63.9163 61.7307 64.0223 61.6242L64.3415 61.3036C64.3819 61.2615 64.4123 61.2108 64.4307 61.1554C64.449 61.0999 64.4548 61.041 64.4475 60.983C64.4475 60.8766 64.4475 60.7701 64.3415 60.7701L64.2355 60.6636H63.9163C63.9023 60.6633 63.8883 60.6658 63.8752 60.671C63.8621 60.6763 63.8502 60.6841 63.8402 60.694C63.8302 60.7039 63.8223 60.7158 63.817 60.7289C63.8116 60.7419 63.809 60.756 63.8091 60.7701L63.7031 60.8766L63.5971 60.983C63.4911 60.983 63.4911 61.0907 63.3839 61.0907H63.0647C62.9587 61.0907 62.9587 60.983 62.8527 60.983C62.7951 60.9256 62.7578 60.8508 62.7467 60.7701V60.556C62.8042 60.5631 62.8626 60.5573 62.9177 60.5388C62.9727 60.5204 63.0229 60.4899 63.0647 60.4495C63.1719 60.4495 63.3839 60.343 63.4911 60.343C63.5971 60.2354 63.8091 60.2354 63.9163 60.1289C64.0235 60.0224 64.2355 59.916 64.3415 59.8083C64.4728 59.6865 64.5809 59.5418 64.6608 59.3812C64.7668 59.2748 64.7668 59.0606 64.7668 58.8477C64.774 58.7897 64.7682 58.7308 64.7499 58.6754C64.7315 58.6199 64.7011 58.5692 64.6608 58.5271C64.6596 58.3178 64.6596 58.2113 64.5571 58.1048L64.5535 58.1ZM63.4851 59.6001C63.259 59.7333 63.0028 59.8065 62.7407 59.8131C62.7337 59.7551 62.7395 59.6963 62.7578 59.6408C62.7762 59.5854 62.8065 59.5347 62.8467 59.4925C62.8467 59.386 62.9527 59.2795 62.9527 59.1731C62.9564 59.1175 62.98 59.0651 63.0192 59.0257C63.0584 58.9863 63.1106 58.9626 63.1659 58.9589C63.2719 58.8525 63.2719 58.8525 63.3779 58.8525C63.484 58.8525 63.5912 58.8525 63.5912 58.9589C63.6972 59.0654 63.6972 59.0654 63.6972 59.1731C63.6955 59.2556 63.6756 59.3367 63.639 59.4105C63.6023 59.4844 63.5498 59.5492 63.4851 59.6001ZM60.9326 58.7448C60.8906 58.7045 60.8401 58.674 60.7849 58.6556C60.7297 58.6371 60.6712 58.6313 60.6134 58.6383H60.1882C59.962 58.6603 59.7437 58.7335 59.5498 58.8525C59.3827 59.0084 59.2395 59.1882 59.1246 59.386C59.1246 59.0654 59.1246 58.8525 59.2306 58.6383V58.0019C59.2309 57.9879 59.2284 57.9739 59.2232 57.9608C59.218 57.9477 59.2102 57.9359 59.2002 57.9259C59.1903 57.916 59.1785 57.9081 59.1655 57.9029C59.1525 57.8977 59.1386 57.8951 59.1246 57.8955C59.0671 57.8374 58.9922 57.8 58.9114 57.789H58.2741V58.0019C58.2741 58.7496 58.1669 59.2843 58.1669 59.8179C58.1669 60.2449 58.0609 60.6732 58.0609 60.9926C58.0609 61.312 58.0609 61.5273 57.9549 61.7403V62.3814C57.9549 62.4879 58.0609 62.4879 58.0609 62.5956C58.1184 62.6537 58.1933 62.6911 58.2741 62.702H58.9114V60.9926C58.9191 60.6956 58.9919 60.404 59.1246 60.1385C59.2306 59.9255 59.4438 59.8179 59.6558 59.7114C59.7136 59.703 59.7725 59.7082 59.8279 59.7267C59.8834 59.7452 59.9337 59.7764 59.975 59.8179C60.0163 59.8593 60.0474 59.9099 60.0658 59.9656C60.0842 60.0212 60.0894 60.0804 60.081 60.1385V62.0609C60.081 62.1685 60.081 62.1685 60.1882 62.275C60.2454 62.3328 60.3198 62.3702 60.4002 62.3814H61.0386V61.5273C61.0219 61.3081 61.0582 61.0881 61.1446 60.8861V59.9291C61.1446 59.715 61.1447 59.5009 61.0386 59.3944C61.0434 58.9589 60.9374 58.8525 60.9374 58.7448H60.9326ZM102.514 49.8805C102.408 49.8805 102.302 49.7729 102.088 49.7729H101.557C101.344 49.7729 101.132 49.8805 100.919 49.987C100.759 50.067 100.615 50.1757 100.494 50.3076C100.364 50.4703 100.257 50.6498 100.174 50.8411C100.068 51.0552 100.068 51.2682 100.068 51.5888V51.8029C99.9623 51.8029 99.8551 51.8029 99.8551 51.9094C99.8411 51.909 99.8272 51.9116 99.8142 51.9168C99.8011 51.922 99.7893 51.9299 99.7794 51.9398C99.7695 51.9498 99.7617 51.9617 99.7565 51.9747C99.7513 51.9878 99.7488 52.0018 99.7491 52.0158C99.7494 52.03 99.7469 52.044 99.7417 52.0571C99.7365 52.0703 99.7287 52.0822 99.7188 52.0923C99.7089 52.1023 99.6971 52.1103 99.6841 52.1156C99.6711 52.121 99.6572 52.1237 99.6431 52.1235V52.657C99.6428 52.6711 99.6453 52.6851 99.6505 52.6982C99.6557 52.7112 99.6635 52.7231 99.6734 52.7331C99.6833 52.743 99.6951 52.7508 99.7081 52.7561C99.7212 52.7613 99.7351 52.7638 99.7491 52.7635L100.068 52.657V54.3665C100.068 54.5794 100.068 54.7936 100.174 54.7936C100.28 54.9 100.388 54.9 100.707 54.9H101.025V52.657L101.451 52.5506C101.533 52.5489 101.614 52.5288 101.688 52.4918C101.761 52.4548 101.826 52.4017 101.876 52.3364C101.917 52.2943 101.947 52.2437 101.965 52.1882C101.984 52.1327 101.99 52.0738 101.982 52.0158V51.6964C101.982 51.5888 101.982 51.5888 101.876 51.5888L101.025 51.6964V51.3758C101.018 51.3177 101.023 51.2588 101.042 51.2033C101.061 51.1478 101.091 51.0972 101.132 51.0552C101.143 50.9742 101.18 50.899 101.238 50.8411C101.344 50.7346 101.344 50.7346 101.451 50.7346C101.558 50.7346 101.663 50.7346 101.663 50.8411V51.2682H101.769C101.868 51.2708 101.966 51.2533 102.057 51.2166C102.149 51.18 102.232 51.125 102.301 51.0551C102.371 50.9851 102.426 50.9016 102.462 50.8097C102.499 50.7178 102.516 50.6194 102.514 50.5205C102.521 50.4627 102.515 50.404 102.497 50.3488C102.478 50.2935 102.448 50.2431 102.408 50.2011C102.626 49.987 102.626 49.987 102.518 49.8805H102.514ZM97.6218 51.8029C97.2989 51.8932 96.9808 52.0002 96.6689 52.1235C96.4557 52.3364 96.2437 52.4441 96.0305 52.657C95.9049 52.8975 95.7982 53.1475 95.7113 53.4047V54.2588C95.6944 54.478 95.7308 54.6981 95.8173 54.9C95.8189 54.9827 95.8389 55.0639 95.8758 55.1378C95.9127 55.2117 95.9656 55.2763 96.0305 55.3271C96.1474 55.4401 96.2957 55.5148 96.4557 55.5412H97.2002C97.4625 55.5354 97.7189 55.4616 97.9446 55.3271C98.1578 55.2206 98.3698 55.1142 98.477 54.9C98.583 54.7936 98.689 54.5794 98.795 54.473C98.9022 54.2588 99.0082 54.1524 99.0082 53.9394C99.0939 53.7751 99.1307 53.5895 99.1142 53.4047V52.9776C99.1142 52.4441 99.0082 52.1235 98.795 51.9094C98.4266 51.7506 98.0175 51.7133 97.6266 51.8029H97.6218ZM98.047 53.6188C98.047 53.7253 97.941 53.9394 97.941 54.0459C97.835 54.2588 97.835 54.3665 97.729 54.473C97.6782 54.5382 97.6135 54.5912 97.5398 54.6282C97.4661 54.6653 97.385 54.6854 97.3026 54.6871C97.0906 54.6871 96.9846 54.6871 96.8774 54.5794C96.8774 54.473 96.7714 54.2588 96.7714 53.9394V53.6188C96.7714 53.5112 96.7714 53.2982 96.8774 53.1918C96.8774 53.0841 96.9846 52.9776 97.0906 52.8712C97.1409 52.8057 97.2053 52.7525 97.2789 52.7155C97.3525 52.6784 97.4335 52.6584 97.5158 52.657C97.729 52.657 97.835 52.657 97.941 52.7635C98.047 52.87 98.047 53.0841 98.047 53.2982V53.6188ZM111.873 49.4535C111.816 49.3951 111.741 49.3573 111.66 49.3458H111.022V49.5599C111.022 50.0934 110.916 50.414 110.916 50.7346C110.916 51.0552 110.916 51.3758 110.81 51.5888V52.657C110.81 52.7635 110.916 52.7635 110.916 52.8712C110.973 52.9293 111.048 52.9667 111.129 52.9776H111.766V52.8712C111.766 52.4441 111.873 52.0158 111.873 51.6964C111.873 51.377 111.873 51.0552 111.979 50.8411V49.7729C111.984 49.5599 111.984 49.4535 111.878 49.4535H111.873ZM111.665 47.9533C111.468 47.9571 111.279 48.0328 111.134 48.1663C111.021 48.2836 110.947 48.4326 110.92 48.5933C110.92 48.9139 111.134 49.0204 111.452 48.9139C111.632 48.9179 111.808 48.8546 111.946 48.7363C112.083 48.618 112.172 48.4529 112.196 48.2727C112.203 48.2149 112.197 48.1563 112.179 48.101C112.161 48.0457 112.13 47.9953 112.09 47.9533H111.665ZM107.198 52.657C107.092 52.3364 107.092 52.0158 106.879 51.5888C106.773 51.1617 106.667 50.6318 106.454 49.8805C106.454 49.7729 106.454 49.6664 106.348 49.6664C106.348 49.5599 106.241 49.5599 106.241 49.4535C106.241 49.347 106.135 49.3458 106.029 49.3458H105.709L105.071 49.4535H104.965L104.859 49.5599C104.859 49.6664 104.752 49.7729 104.646 49.987C104.521 50.2277 104.414 50.4777 104.326 50.7346C104.221 51.0537 104.114 51.3727 104.007 51.6917L103.689 52.6487C103.582 52.9693 103.476 53.1834 103.476 53.3963C103.399 53.5637 103.363 53.7469 103.37 53.9311C103.37 54.0375 103.37 54.0375 103.476 54.144L103.582 54.2505H104.007L104.326 54.144C104.341 54.1445 104.355 54.1421 104.368 54.1369C104.381 54.1318 104.393 54.124 104.403 54.114C104.413 54.104 104.421 54.0921 104.426 54.0789C104.431 54.0658 104.434 54.0517 104.434 54.0375L104.646 53.0805L105.815 52.8676C105.815 52.974 105.815 53.1882 105.923 53.2946C105.923 53.4011 106.029 53.5076 106.029 53.6152C106.135 53.7217 106.135 53.7217 106.241 53.7217H106.667L106.985 53.6152C107.092 53.6152 107.092 53.6152 107.092 53.5076V53.0805C107.304 53.0841 107.198 52.9776 107.198 52.657ZM105.071 52.1235L105.496 50.3076L105.815 52.0206L105.071 52.1235ZM87.0985 53.9346C87.0413 53.876 86.9663 53.8382 86.8853 53.827H86.2481V54.0411C86.2481 54.5746 86.1409 54.8952 86.1409 55.2158C86.1409 55.5364 86.1409 55.857 86.0349 56.07V57.1382C86.0349 57.2447 86.1409 57.2447 86.1409 57.3524C86.1986 57.4102 86.2734 57.4475 86.3541 57.4588H86.9925V57.3524C86.9925 56.9253 87.0985 56.497 87.0985 56.1776C87.0985 55.8582 87.0985 55.5364 87.2045 55.3223V54.2541C87.2045 54.0459 87.2045 53.9346 87.0985 53.9346ZM93.5852 52.6523H92.8408V52.7587L92.7348 54.0411C92.7277 54.3381 92.6553 54.6297 92.5227 54.8952C92.4155 55.1094 92.2035 55.2158 91.9903 55.3223C91.9325 55.3307 91.8736 55.3255 91.8182 55.307C91.7628 55.2885 91.7124 55.2573 91.6711 55.2159C91.6298 55.1744 91.5987 55.1238 91.5803 55.0681C91.5619 55.0125 91.5567 54.9533 91.5651 54.8952V53.1918C91.5651 53.0841 91.5651 53.0841 91.4591 52.9776C91.4014 52.9198 91.3266 52.8825 91.2459 52.8712H90.7147C90.6595 52.8748 90.6075 52.8984 90.5683 52.9375C90.5291 52.9766 90.5054 53.0287 90.5015 53.0841V55.0113C90.5015 55.2254 90.5015 55.4395 90.6075 55.546C90.6075 55.6525 90.7147 55.7589 90.8207 55.8666C90.8627 55.907 90.9131 55.9376 90.9683 55.956C91.0235 55.9744 91.0821 55.9802 91.1399 55.9731H91.5651C91.6711 55.9731 91.7783 55.9731 91.7783 55.8666C91.8843 55.8666 91.9903 55.7589 92.0963 55.7589C92.2035 55.6525 92.3095 55.6525 92.3095 55.546C92.4155 55.4395 92.5227 55.3319 92.5227 55.2254V55.6525C92.5227 55.7589 92.5227 55.9731 92.4156 56.0795C92.3084 56.186 92.3095 56.2937 92.2035 56.4001C92.0975 56.5066 91.9903 56.5066 91.7783 56.6143H91.3567C91.2507 56.6143 91.2507 56.5066 91.1447 56.5066L91.0386 56.4001C91.0386 56.4001 91.0386 56.2937 90.9314 56.4001C90.8254 56.4001 90.7194 56.4001 90.7194 56.5066C90.6122 56.5066 90.6122 56.6143 90.5062 56.6143C90.4002 56.6143 90.4002 57.0413 90.4002 57.0413C90.4002 57.1478 90.2942 57.1478 90.2942 57.2543C90.287 57.3123 90.2928 57.3711 90.3111 57.4266C90.3294 57.4821 90.3599 57.5327 90.4002 57.5749C90.5062 57.6825 90.6122 57.6825 90.7194 57.789C90.8254 57.789 91.0386 57.8955 91.1447 57.8955H91.7831C92.0087 57.8734 92.2265 57.8006 92.4203 57.6825C92.6109 57.5995 92.7899 57.4917 92.9527 57.3619C93.1647 57.2543 93.2719 57.0413 93.3779 56.8272C93.5109 56.6002 93.5839 56.3428 93.59 56.0795C93.59 55.546 93.6972 55.1225 93.6972 54.7983C93.6972 54.4742 93.6972 54.1571 93.8032 53.9442V52.9872C93.7591 52.8606 93.6842 52.7471 93.5852 52.657V52.6523ZM84.3292 55.1142H84.5413C84.5553 55.1138 84.5692 55.1164 84.5822 55.1216C84.5952 55.1268 84.607 55.1347 84.6169 55.1446C84.6268 55.1546 84.6346 55.1664 84.6399 55.1795C84.6451 55.1926 84.6476 55.2066 84.6473 55.2206V55.5412H84.7545C84.8956 55.5557 85.0377 55.5253 85.1608 55.4543C85.2838 55.3833 85.3816 55.2753 85.4403 55.1455C85.499 55.0158 85.5156 54.8708 85.4879 54.731C85.4601 54.5912 85.3894 54.4637 85.2857 54.3665C85.0737 54.2588 84.8605 54.2588 84.4352 54.2588C84.222 54.2588 84.116 54.3665 83.9028 54.3665C83.7428 54.4465 83.5987 54.5551 83.4776 54.6871C83.3716 54.7936 83.2656 55.0065 83.1584 55.1142C82.9464 55.2206 82.9464 55.4348 82.9464 55.6477C82.93 55.8325 82.9668 56.0181 83.0524 56.1824C83.1584 56.2889 83.1584 56.3954 83.2656 56.5018C83.3073 56.5427 83.3577 56.5736 83.413 56.5922C83.4682 56.6109 83.527 56.6168 83.5848 56.6095C83.6908 56.6095 83.7968 56.716 83.9028 56.716C83.9836 56.7269 84.0586 56.7643 84.116 56.8224C84.222 56.8224 84.222 56.9301 84.222 57.0366C84.222 57.143 84.222 57.143 84.116 57.2495C84.01 57.2495 83.9028 57.3571 83.7968 57.3571H83.2656C83.1584 57.3571 83.1584 57.3572 83.1584 57.2495H83.0524C82.9464 57.2495 82.9464 57.2495 82.8404 57.3571L82.7332 57.4636C82.7332 57.5701 82.6272 57.5701 82.6272 57.6777V57.7842C82.6272 57.8907 82.6272 57.9972 82.7332 57.9972C82.8392 57.9972 82.9464 58.1048 83.0524 58.1048H83.9028C84.3292 57.9971 84.6473 57.8907 84.8557 57.5701C85.0691 57.3382 85.1837 57.0316 85.1749 56.716C85.1749 56.5018 85.1749 56.3954 85.0689 56.2889C84.9629 56.1824 84.8557 56.0748 84.7497 56.0748C84.6425 55.9683 84.5365 55.9683 84.3245 55.9683C84.1753 55.973 84.0277 55.9362 83.8981 55.8618C83.7921 55.8618 83.686 55.7542 83.58 55.7542C83.474 55.7542 83.4728 55.6477 83.4728 55.5412C83.4728 55.4348 83.4728 55.3271 83.58 55.3271C84.0148 55.1142 84.1208 55.1142 84.3292 55.1142ZM82.4235 54.7936C82.3175 54.7936 82.3175 54.6871 82.2115 54.6871H81.9983C81.8923 54.6871 81.8923 54.6871 81.7863 54.7936C81.7055 54.8045 81.6305 54.8419 81.573 54.9L81.3515 55.1142C81.2443 55.2206 81.2443 55.3271 81.1383 55.4348V55.2206C81.1386 55.2066 81.1361 55.1926 81.1309 55.1795C81.1257 55.1664 81.1179 55.1546 81.108 55.1446C81.0981 55.1347 81.0863 55.1268 81.0732 55.1216C81.0602 55.1164 81.0463 55.1138 81.0323 55.1142C80.9748 55.0559 80.9 55.018 80.8191 55.0065H80.2879C80.1807 55.0065 80.1807 55.1142 80.1807 55.2206C80.1807 55.7542 80.0747 56.0748 80.0747 56.3954C80.0747 56.716 80.0747 57.0366 79.9687 57.2495V58.3178C79.9687 58.4254 80.0747 58.4254 80.0747 58.5319C80.0747 58.6383 80.1807 58.6383 80.2879 58.6383H80.9251V56.9253C80.9251 56.6047 81.0323 56.3906 81.0323 56.1776C81.1383 55.9635 81.2443 55.857 81.3515 55.857C81.4587 55.857 81.4575 55.857 81.4575 55.9635V56.3906H81.7767C81.8827 56.3906 81.9887 56.2841 82.0959 56.2841C82.2019 56.1776 82.308 56.1776 82.308 56.07C82.3483 56.0278 82.3787 55.9772 82.3971 55.9217C82.4154 55.8663 82.4212 55.8074 82.414 55.7494V55.43C82.4212 55.372 82.4154 55.3131 82.3971 55.2576C82.3787 55.2022 82.3483 55.1515 82.308 55.1094C82.5259 54.9 82.5259 54.7936 82.4235 54.7936ZM89.975 53.2982L89.3366 53.4047V52.9776C89.3366 52.8712 89.3366 52.657 89.2306 52.5506C89.1246 52.4441 89.0174 52.4441 88.8054 52.4441H88.5921C88.5781 52.4438 88.5642 52.4463 88.5512 52.4515C88.5382 52.4568 88.5264 52.4646 88.5165 52.4746C88.5066 52.4845 88.4988 52.4964 88.4935 52.5094C88.4883 52.5225 88.4858 52.5365 88.4861 52.5506C88.4861 52.657 88.3789 52.7635 88.3789 52.8712C88.3789 52.9788 88.2729 53.0841 88.2729 53.1918C88.2729 53.2994 88.1669 53.4047 88.1669 53.5112C88.0609 53.5112 87.9537 53.5112 87.9537 53.6188C87.954 53.6329 87.9515 53.6469 87.9463 53.66C87.9411 53.673 87.9333 53.6849 87.9234 53.6948C87.9135 53.7048 87.9017 53.7126 87.8887 53.7179C87.8757 53.7231 87.8617 53.7256 87.8477 53.7253L87.7417 53.8318V54.473H87.8477L88.1669 54.3665C88.1669 54.6871 88.1669 54.9 88.0609 55.1142V56.1824C88.0467 56.4152 88.1226 56.6446 88.2729 56.8224C88.3789 56.9301 88.6982 56.9301 89.0174 56.9301C89.335 56.8224 89.5478 56.7156 89.6558 56.6095C89.7618 56.3954 89.8678 56.2889 89.8678 55.9683V55.7542H89.6558L89.5498 55.8618C89.5357 55.8615 89.5217 55.864 89.5087 55.8692C89.4956 55.8745 89.4837 55.8823 89.4737 55.8922C89.4637 55.9021 89.4558 55.914 89.4504 55.9271C89.4451 55.9401 89.4424 55.9542 89.4426 55.9683H89.2306V54.1524L89.5498 54.0459C89.6321 54.0443 89.7129 54.0242 89.7865 53.9871C89.8601 53.9501 89.9245 53.897 89.975 53.8318C90.0153 53.7896 90.0458 53.739 90.0641 53.6835C90.0825 53.628 90.0882 53.5692 90.081 53.5112L89.975 53.2982C90.0762 53.2982 90.0762 53.1918 89.9702 53.2982H89.975ZM86.8901 52.4441C86.7095 52.4407 86.5339 52.5039 86.3967 52.6219C86.2595 52.7399 86.1701 52.9044 86.1456 53.0841C86.1456 53.4047 86.3588 53.5112 86.6781 53.4047C86.875 53.4006 87.0637 53.325 87.2093 53.1918C87.3218 53.0739 87.3962 52.9246 87.4225 52.7635C87.4296 52.7057 87.4238 52.647 87.4055 52.5918C87.3871 52.5365 87.3567 52.4861 87.3165 52.4441H86.8901Z" fill="black"/>
<path d="M2.65851 43.4722C1.70564 43.6851 1.06364 43.5786 0.63366 43.3645C0.21122 43.0439 0 42.51 0 41.7627V40.6944C0 40.1609 0.106007 39.6262 0.106007 38.9862C0.106007 38.3462 0.213205 37.5973 0.319212 36.7432C0.425219 35.9955 0.425219 35.1402 0.531226 34.2861C0.638425 33.2178 0.638425 32.3637 0.744432 31.616C0.827018 30.9787 0.862451 30.3362 0.850439 29.6936C0.850439 29.1589 0.957637 28.7366 0.957637 28.4112V25.9553C0.950417 25.8973 0.956188 25.8384 0.974529 25.783C0.992869 25.7275 1.02332 25.6768 1.06364 25.6347C1.11867 25.574 1.19426 25.536 1.27566 25.5282C1.70207 25.4206 2.22853 25.3141 2.76452 25.2076C3.30051 25.1012 3.82817 24.887 4.36058 24.7806C4.893 24.6741 5.42423 24.46 5.84945 24.3523C6.28068 24.2697 6.70665 24.1615 7.12511 24.0281C8.18875 23.814 9.14996 23.7075 9.89082 23.814C10.6317 23.9205 11.2725 24.1346 11.8049 24.5617C12.3095 24.9791 12.6783 25.5386 12.8638 26.1682C13.0758 26.8094 13.1818 27.6636 13.1818 28.5189C13.1818 29.4759 13.0758 30.5525 12.7566 31.5095C12.5523 32.49 12.1146 33.4061 11.4809 34.1796C10.958 35.0337 10.2088 35.6749 9.3584 36.3149C8.50796 36.9549 7.44432 37.3832 6.16866 37.5973C5.42423 37.7038 4.7858 37.8103 4.36058 37.7038L4.25339 42.7281C4.26051 42.7859 4.25469 42.8446 4.23635 42.8998C4.21801 42.9551 4.18761 43.0055 4.14738 43.0475C4.14738 43.1551 4.04137 43.1552 3.82817 43.1552L2.65851 43.4722Z" fill="#EC951A"/>
<path d="M18.0796 40.2674C17.1267 40.4815 16.4835 40.3738 16.0547 40.1609C15.6295 39.8403 15.4163 39.4132 15.4163 38.6656C15.4104 38.0939 15.4463 37.5225 15.5235 36.9561C15.5235 36.102 15.6295 35.1402 15.7355 34.0719C15.8633 32.937 15.9344 31.7963 15.9487 30.6542C16.0547 29.4795 16.1607 28.3047 16.1607 27.343C16.2679 26.2759 16.2679 25.4206 16.3739 24.5664C16.3739 23.8188 16.4799 23.2852 16.4799 22.9646C16.4744 22.9072 16.4816 22.8492 16.501 22.7948C16.5204 22.7405 16.5515 22.6911 16.5922 22.6503C16.6328 22.6095 16.682 22.5782 16.7361 22.5587C16.7902 22.5392 16.8479 22.532 16.9051 22.5376L25.8383 20.614H26.1575C26.2647 20.614 26.2647 20.7216 26.2647 20.8281L26.1575 22.3234C26.1477 22.7838 25.9994 23.2304 25.7323 23.6046C25.5203 23.9252 24.9879 24.2458 24.2435 24.3523L20.7381 25.1047L20.4189 28.8431L24.035 28.0954H24.353C24.4602 28.0954 24.4602 28.2031 24.4602 28.3095L24.353 29.9113C24.3432 30.3721 24.195 30.819 23.9278 31.1937C23.7158 31.5143 23.1834 31.8337 22.439 31.9414L20.2057 32.4749L19.8912 36.3149L25.4214 35.1402H25.7407C25.8467 35.1402 25.8467 35.2479 25.8467 35.3543L25.7407 36.8496C25.7306 37.31 25.5824 37.7565 25.3154 38.1308C25.1022 38.4514 24.571 38.772 23.8266 38.8785L18.0796 40.2674Z" fill="#ED0080"/>
<path d="M39.8801 35.6749C39.1357 35.7814 38.7104 35.7814 38.2852 35.6749C37.966 35.5672 37.7528 35.3543 37.5408 35.0337C36.6904 33.4319 35.8387 31.8289 35.0943 30.3336C34.3499 28.8383 33.4994 27.3429 32.755 25.7412C32.755 27.5571 32.755 29.373 32.861 31.1889C32.861 33.0049 32.9682 34.8196 32.9682 36.6355C32.9738 36.6931 32.9666 36.7512 32.9471 36.8056C32.9276 36.8601 32.8963 36.9095 32.8556 36.9503C32.8148 36.9912 32.7655 37.0224 32.7112 37.0418C32.657 37.0612 32.5991 37.0683 32.5418 37.0626L31.1601 37.3832C30.2072 37.5973 29.5641 37.4908 29.1353 37.2767C28.7104 36.9577 28.498 36.4238 28.498 35.6749V34.6066C28.498 34.0719 28.604 33.5384 28.604 32.8972C28.604 32.256 28.71 31.5095 28.8161 30.6542C28.9233 29.9065 28.9233 29.0524 29.0293 28.1983C29.1353 26.9159 29.2425 25.8476 29.2425 24.9935C29.3485 24.1394 29.3485 23.3917 29.4545 22.857C29.4545 22.217 29.5605 21.7899 29.5605 21.3616V20.0804C29.5549 20.0229 29.5621 19.9648 29.5816 19.9103C29.6011 19.8559 29.6323 19.8065 29.6731 19.7656C29.7139 19.7248 29.7632 19.6935 29.8175 19.6741C29.8717 19.6547 29.9296 19.6476 29.9869 19.6534L32.0118 19.2263C32.468 19.1446 32.9312 19.1085 33.3946 19.1186C33.7138 19.1186 34.0318 19.3328 34.245 19.4392C34.4542 19.625 34.6345 19.8411 34.7798 20.0804C34.887 20.2946 34.993 20.614 35.2063 20.8281C35.6315 21.7851 35.9507 22.644 36.2687 23.2852C36.5879 24.0329 36.9071 24.5664 37.1203 25.1C37.3335 25.6335 37.5456 26.057 37.7576 26.4888C37.9696 26.9207 38.0768 27.2365 38.29 27.5571C38.396 27.8777 38.6092 28.1983 38.7152 28.5141C38.8515 28.8542 39.03 29.1758 39.2464 29.4711V17.8375C39.2464 17.731 39.3536 17.6233 39.6728 17.5169L41.0545 17.1963C41.4753 17.1161 41.9032 17.0804 42.3314 17.0898C42.6506 17.0898 42.9686 17.1963 43.0758 17.4104C43.1797 17.5044 43.262 17.62 43.3171 17.749C43.3722 17.8781 43.3988 18.0177 43.395 18.158C43.501 18.4786 43.501 18.7992 43.501 19.2263C43.508 19.8688 43.4726 20.511 43.395 21.1487C43.395 22.0028 43.2878 23.0711 43.1818 24.1394C43.0758 25.2076 43.0758 26.3823 42.9686 27.5571C42.9575 28.6993 42.8867 29.8401 42.7566 30.9748C42.6506 31.9318 42.6506 32.7907 42.5434 33.5384C42.474 33.9619 42.4386 34.3904 42.4374 34.8196C42.4446 34.8776 42.4388 34.9365 42.4205 34.9919C42.4021 35.0474 42.3717 35.098 42.3314 35.1402C42.2242 35.2478 42.1182 35.2478 42.0121 35.3543L39.8801 35.6749Z" fill="#B10069"/>
<path d="M54.4495 14.5262C54.7961 14.4192 55.1666 14.4192 55.5132 14.5262C55.8324 14.6327 56.0456 14.7403 56.2576 15.0609C56.4708 15.2739 56.5768 15.5945 56.6828 15.9151C56.7888 16.2357 56.896 16.5563 57.002 16.8721C57.6405 19.4357 58.2789 21.5722 58.7041 23.2816C59.1293 24.9911 59.4485 26.3788 59.7677 27.3394C59.9798 28.4076 60.193 29.1553 60.299 29.69C60.373 30.0411 60.4086 30.3994 60.405 30.7583C60.4074 30.8571 60.3898 30.9555 60.3533 31.0473C60.3168 31.1391 60.262 31.2225 60.1924 31.2924C60.1228 31.3624 60.0397 31.4173 59.9483 31.454C59.8569 31.4907 59.759 31.5084 59.6605 31.5059L58.3849 31.8253C57.6405 31.933 57.108 32.0395 56.6828 31.933C56.323 31.8443 55.9938 31.6595 55.7299 31.3983C55.4698 31.0501 55.2882 30.6492 55.1975 30.2235C55.0606 29.7006 54.9893 29.1625 54.9855 28.6217L50.6249 29.5788L49.7745 33.2106C49.6673 33.5312 49.4553 33.6377 49.2421 33.7453L47.8568 34.0767C47.5821 34.1653 47.2933 34.2018 47.0052 34.1844C46.686 34.1844 46.474 34.1844 46.2608 34.0767C46.0476 33.969 45.8356 33.8638 45.7295 33.6496C45.5961 33.4228 45.5227 33.1654 45.5163 32.902C45.5163 32.583 45.6227 31.9422 45.8356 30.9796C46.0488 30.1254 46.368 29.0572 46.686 27.8825C47.004 26.7077 47.4304 25.533 47.8568 24.2506C48.2832 22.9682 48.7073 21.7947 49.1325 20.6188C49.5577 19.4428 49.9829 18.4834 50.3021 17.6281C50.5238 16.9959 50.8087 16.3879 51.1526 15.8134C51.235 15.6218 51.3424 15.442 51.4718 15.2786C51.579 15.1722 51.791 15.1722 52.1102 15.0657L54.4495 14.5262Z" fill="#662D91"/>
<path d="M74.018 28.5189C73.2735 28.6253 72.8483 28.6253 72.4231 28.5189C72.1039 28.4112 71.8907 28.1983 71.6787 27.8777C70.827 26.2759 69.9766 24.6729 69.2322 23.1776C68.4877 21.6822 67.6373 20.1869 66.8928 18.5851C66.8928 20.401 66.8929 22.217 66.9989 24.0329C66.9989 25.8476 67.1049 27.6635 67.1049 29.4795C67.1104 29.5369 67.1032 29.5949 67.0838 29.6493C67.0644 29.7036 67.0332 29.753 66.9926 29.7938C66.952 29.8346 66.9028 29.8659 66.8487 29.8854C66.7946 29.9049 66.7369 29.9121 66.6796 29.9065L65.2968 30.2271C64.3439 30.4413 63.7019 30.3336 63.2719 30.1207C62.8463 29.8017 62.6335 29.2677 62.6335 28.5189V27.4506C62.6335 26.9159 62.7407 26.3823 62.7407 25.7412C62.7407 25.1 62.8467 24.3523 62.9527 23.4982C63.0587 22.7505 63.0587 21.8964 63.1659 21.0422C63.2719 19.7598 63.3779 18.6916 63.3779 17.8375C63.4851 16.9833 63.4851 16.2357 63.5911 15.7009C63.5911 15.0609 63.6972 14.6327 63.6972 14.2056V12.9244C63.6916 12.8669 63.6988 12.809 63.7182 12.7546C63.7376 12.7003 63.7688 12.6509 63.8094 12.6101C63.8501 12.5693 63.8992 12.538 63.9533 12.5185C64.0074 12.499 64.0652 12.4918 64.1224 12.4973L66.1472 12.0703C66.6031 11.9886 67.0659 11.9525 67.5289 11.9626C67.8481 11.9626 68.1673 12.1767 68.3805 12.2832C68.5881 12.4695 68.7671 12.6856 68.9117 12.9244C69.0178 13.1373 69.125 13.4579 69.337 13.6721C69.7622 14.6291 70.0814 15.488 70.4006 16.128C70.7198 16.8757 71.039 17.4104 71.2511 17.9439C71.4631 18.4775 71.6775 18.9009 71.8895 19.3328C72.1015 19.7646 72.2087 20.0804 72.4219 20.401C72.5279 20.7216 72.7399 21.0422 72.8471 21.358C72.9833 21.6983 73.1618 22.0199 73.3783 22.3151V10.6814C73.3783 10.5749 73.4843 10.4673 73.8036 10.3608L75.1864 10.0402C75.6068 9.96004 76.0343 9.92436 76.4621 9.93375C76.7813 9.93375 77.1005 10.0402 77.2065 10.2543C77.3106 10.3482 77.3931 10.4637 77.4482 10.5928C77.5034 10.7219 77.5298 10.8616 77.5257 11.002C77.6329 11.3226 77.6329 11.642 77.6329 12.0703C77.64 12.7128 77.6042 13.355 77.5257 13.9927C77.5257 14.8468 77.4197 15.9151 77.3137 16.9833C77.2077 18.0516 77.2065 19.2263 77.1005 20.401C76.9945 21.5758 76.8885 22.644 76.8885 23.7123C76.7813 24.6693 76.7813 25.5282 76.6753 26.2759C76.6059 26.6994 76.5704 27.1279 76.5693 27.5571C76.5764 27.6152 76.5705 27.6741 76.552 27.7296C76.5334 27.7851 76.5027 27.8357 76.4621 27.8777C76.3561 27.9841 76.2501 27.9841 76.1441 28.0906L74.018 28.5189Z" fill="#00AFAD"/>
<path d="M91.8843 24.7806C91.0339 24.9935 90.3954 24.887 89.9702 24.6729C89.7673 24.5283 89.603 24.3359 89.4916 24.1124C89.3803 23.889 89.3254 23.6415 89.3318 23.3917C89.1214 24.0674 88.7139 24.6642 88.1622 25.1048C87.4226 25.7049 86.545 26.1092 85.6096 26.2807C84.976 26.3872 84.3292 26.3872 83.6956 26.2807C83.0571 26.173 82.5259 25.8524 81.9935 25.3237C81.4611 24.7949 81.1431 24.0281 80.8238 23.0711C80.5046 22.1141 80.3986 20.9346 80.3986 19.3328C80.3861 18.6532 80.4215 17.9737 80.5046 17.2991C80.6118 16.5515 80.7178 15.6962 80.9299 14.9485C81.1362 14.0906 81.4567 13.2645 81.8827 12.4926C82.3171 11.6485 82.8545 10.8621 83.4824 10.1515C84.1208 9.40382 84.9712 8.76382 85.9289 8.22909C86.8865 7.69436 88.0561 7.27208 89.3318 6.9479C90.1822 6.73376 90.9267 6.73376 91.6711 6.73376C92.2647 6.73442 92.849 6.88105 93.3732 7.16083C93.8378 7.32932 94.2192 7.67244 94.4368 8.11784C94.7025 8.61056 94.8482 9.15947 94.862 9.71963C94.862 10.6766 94.5428 11.5356 93.9092 12.1768C93.2755 12.818 92.3143 13.245 91.2507 13.458C90.9314 13.5656 90.6122 13.5656 90.6122 13.458C90.6122 13.3503 90.5062 13.3515 90.5062 13.1374C90.5062 12.818 90.4002 12.4974 90.4002 12.2832C90.4174 11.9944 90.3815 11.7049 90.2942 11.4291C90.187 11.215 90.081 11.002 89.8678 10.8944C89.6546 10.7867 89.3366 10.7879 89.0174 10.8944C88.1669 11.1085 87.5285 11.4291 86.9925 12.0703C86.4601 12.6038 86.1409 13.3515 85.9289 13.9927C85.703 14.7276 85.5268 15.477 85.4012 16.2357C85.0832 16.9833 85.0832 17.6233 85.0832 18.1581C85.0832 19.0122 85.0832 19.6534 85.1892 20.1917C85.2952 20.73 85.4012 21.1487 85.6144 21.4741C85.8276 21.7995 86.0396 22.0076 86.3588 22.1141C86.6781 22.2206 86.8901 22.2218 87.3117 22.1141C87.8956 21.9976 88.4427 21.7411 88.9066 21.3664C89.3318 21.047 89.651 20.4094 89.651 19.7646L89.757 18.2693C89.7574 17.8334 89.8294 17.4005 89.9702 16.9881C90.0155 16.8367 90.0973 16.6989 90.2085 16.587C90.3197 16.4751 90.4568 16.3926 90.6075 16.3469L91.9903 16.0263C92.3385 15.9432 92.6963 15.9074 93.054 15.9199C93.2672 15.9199 93.4792 16.0263 93.6924 16.2405C93.8177 16.4811 93.9244 16.7311 94.0116 16.9881C94.0116 17.3087 94.1176 17.7358 94.1176 18.2693V19.6582C94.1176 20.1917 94.0116 20.8329 94.0116 21.3664C94.0116 21.9 93.9044 22.5424 93.9044 22.9694C93.9044 23.503 93.7984 23.8236 93.7984 24.0377C93.78 24.1491 93.7442 24.2569 93.6924 24.3571C93.6924 24.4648 93.5852 24.4648 93.3732 24.4648L91.8843 24.7806Z" fill="#72BF44"/>
<g opacity="0.85">
<path d="M49.3457 60.7749H48.8133C48.9193 60.7749 49.0265 60.8813 49.1325 60.8813C49.1325 60.9926 49.2385 60.8813 49.3457 60.7749Z" fill="#00A6E9"/>
<path d="M48.1749 60.7749H47.9628C48.0689 60.8813 48.1749 60.8813 48.1749 60.7749Z" fill="#00A6E9"/>
<path d="M47.2184 60.9926C47.402 61.0091 47.5864 60.9721 47.7496 60.8861C47.6436 60.9926 47.4304 60.9926 47.2184 60.9926Z" fill="#00A6E9"/>
<path d="M48.0689 61.0955C47.9628 60.9878 47.9628 60.9878 48.0689 60.8813C47.9628 60.8813 47.8568 60.9878 47.7496 60.9878C47.8075 60.9805 47.8662 60.9864 47.9215 61.0051C47.9767 61.0237 48.0271 61.0546 48.0689 61.0955Z" fill="#00A6E9"/>
<path d="M48.0688 61.0955C48.1495 61.1068 48.2244 61.1441 48.2821 61.2019C48.2265 61.1412 48.1506 61.1033 48.0688 61.0955Z" fill="#00A6E9"/>
<path d="M47.9628 62.4832C47.8568 62.5908 47.8568 62.1637 47.6436 62.2702C47.2184 62.3767 46.7932 62.6973 46.368 62.6973C46.1548 62.8037 45.8356 62.3767 45.6235 62.4832C45.1971 62.5908 44.0275 63.2308 44.6707 63.2308C45.7343 63.1243 46.3727 62.9114 47.3292 62.8038C48.0736 62.5908 48.818 62.2702 49.5625 62.0561H50.2009C49.8817 62.0561 49.6685 61.9496 49.3505 61.9496C49.0265 61.7355 48.5965 62.3767 47.9628 62.4832Z" fill="#00A6E9"/>
<path d="M53.4931 60.4543L53.1739 60.6684C52.7487 60.4543 52.221 60.6684 51.791 60.7749L52.1102 60.8814C52.3234 60.7749 52.4294 60.6684 52.1102 60.6684C52.6415 60.8813 53.1739 60.7749 53.7051 60.6684C53.7015 60.613 53.678 60.5608 53.6391 60.5214C53.6001 60.4821 53.5482 60.4582 53.4931 60.4543Z" fill="#00A6E9"/>
<path d="M45.1971 61.629C43.9215 61.7355 42.6458 61.8431 41.475 61.8431C41.369 61.9496 41.369 62.0561 41.157 61.9496C41.1149 61.9092 41.0645 61.8788 41.0093 61.8603C40.9541 61.8419 40.8955 61.8361 40.8377 61.8431H40.0933C39.9861 61.8431 39.9861 61.9496 40.0933 62.0561C40.1993 62.0561 40.1993 62.1637 40.3053 62.1637C40.2484 62.1054 40.1739 62.0675 40.0933 62.0561C39.9861 62.0561 39.8801 61.9496 39.7741 61.9496H39.2417C39.4549 61.9496 39.5609 61.8431 39.7741 61.9496C39.8318 61.9567 39.8904 61.9508 39.9456 61.9324C40.0008 61.914 40.0513 61.8835 40.0933 61.8431H38.8165C38.4973 61.9496 38.2852 61.9496 38.072 61.7355H37.7576L36.8047 61.629C36.5915 61.7355 36.3795 61.8431 36.1663 61.8431L35.9543 61.629C35.8471 61.7355 35.7411 61.8431 35.6351 61.8431C35.7953 61.9228 35.9394 62.0315 36.0603 62.1637C36.2723 62.3767 36.4855 61.7355 36.8047 62.1637C36.5915 61.7355 36.2723 62.3767 36.0603 62.1637C35.9543 62.0561 35.7411 61.9496 35.6351 61.8431C35.3158 61.9496 34.9966 61.8431 34.6822 61.629C35.1074 61.5225 35.3206 61.629 35.6351 61.8431C35.7411 61.8431 35.8471 61.7355 35.9543 61.629L36.1663 61.8431C36.3795 61.7355 36.5915 61.7355 36.8047 61.629C36.1663 61.629 35.6351 61.5225 34.9966 61.5225L29.2544 60.8813C27.3391 60.6684 25.5322 60.2401 23.5109 59.7066C21.489 59.1184 19.5297 58.3314 17.6615 57.3572C15.9606 56.4001 14.2585 55.5412 12.6589 54.473C11.0593 53.4047 9.68119 52.1235 8.72831 50.4141C8.41029 49.7729 7.77544 48.9187 7.13344 48.1711C6.60222 47.3169 6.0698 46.5693 5.75059 45.9281C5.32537 44.8598 3.09207 46.0345 3.09207 46.0345C2.56085 46.8899 2.66685 47.5299 2.98606 48.2775C3.30528 49.0252 7.98865 56.3954 9.36674 57.2495C10.7496 58.2065 12.4505 58.8525 13.8333 59.7066C14.4718 60.1337 15.3222 60.4543 16.1726 60.7749C18.4059 61.9496 20.7464 62.5908 23.081 63.0179C25.4155 63.4449 27.8668 63.6591 30.4193 63.9749C31.8009 64.0825 32.9718 63.7619 34.1414 63.6555C34.9919 63.6555 35.8423 63.8684 36.4807 63.8684C37.4121 63.8801 38.3411 63.7724 39.2453 63.5478C38.2924 63.6555 37.5444 63.7619 36.4807 63.7619C35.7363 63.7619 37.012 63.2272 37.4336 63.1207C37.6456 63.0143 37.9648 63.4413 38.178 63.4413C38.6033 63.4413 39.0285 63.2272 39.4537 63.1207C39.6669 63.0143 39.6669 63.4413 39.7729 63.3349C40.4113 63.2272 40.8366 62.6937 41.2618 62.8001C41.581 62.8001 41.9002 62.9078 42.1122 62.9078H42.6411L42.9591 62.8001C42.8531 62.6937 42.8531 62.4795 42.7471 62.3731C42.9591 62.3731 43.1723 62.4795 43.2783 62.4795C43.0663 62.4795 42.8531 62.3731 42.7471 62.3731C42.7734 62.5336 42.8473 62.6824 42.9591 62.8001C43.8107 62.4795 44.7672 62.2666 45.6188 61.946C45.088 62.0703 44.5324 62.0333 44.0227 61.8395C44.2359 61.946 44.2359 62.0525 44.0227 62.0525L43.9167 61.946C44.3419 61.8395 44.8696 61.6254 45.2996 61.946L45.6188 61.7319C45.7248 61.7319 45.7248 61.946 45.8308 62.0525C45.8885 62.0596 45.9471 62.0538 46.0024 62.0354C46.0576 62.017 46.108 61.9864 46.15 61.946C45.9416 61.7355 45.1971 61.629 45.1971 61.629Z" fill="#00A6E9"/>
<path d="M39.8801 61.8431H39.0297C39.2417 61.9496 39.5609 61.9496 39.8801 61.8431Z" fill="#00A6E9"/>
</g>
<path d="M71.9967 2.45712C71.9391 2.44997 71.8807 2.45582 71.8257 2.47424C71.7707 2.49266 71.7204 2.52318 71.6787 2.56359H70.615L70.0826 2.67006H69.9766L69.1261 2.88419L70.1898 3.31125H70.4018C70.5078 3.41772 70.5078 3.41772 70.721 3.41772H70.827L71.0402 3.31125H71.4654C71.6787 3.31125 71.9967 3.20479 72.3159 3.20479L73.2688 2.99066L71.9919 2.45712H71.9967Z" fill="#FFE600"/>
<path d="M119.003 19.6534C118.896 19.3328 118.684 19.0122 118.578 18.5851C118.365 18.1581 118.151 17.6281 117.939 17.0898C117.939 16.9833 117.939 16.9833 117.833 16.8757L117.62 16.9833C117.62 16.8757 117.514 16.8757 117.407 16.7692C116.864 16.0566 116.434 15.2641 116.131 14.4197C115.706 13.1373 114.749 11.8558 113.26 10.575C112.461 9.86632 111.608 9.22307 110.707 8.65136C110.282 8.33196 109.754 8.01136 109.325 7.69436C108.764 7.24198 108.158 6.84837 107.517 6.51963L107.198 6.30191C105.284 5.12718 103.157 4.05892 100.604 3.31125C98.265 2.56359 95.8185 2.03006 93.5852 1.49533C92.4156 1.28239 91.4591 1.28239 90.5015 1.28239H89.9702C89.5716 1.27265 89.177 1.2004 88.8006 1.06826C88.4524 0.985207 88.0946 0.9494 87.7369 0.961795C86.7826 0.855249 85.8195 0.855249 84.8652 0.961795V1.17951C84.7324 1.11477 84.5876 1.07851 84.44 1.07305H84.3292C84.0331 1.08007 83.7421 1.15322 83.4776 1.28718L80.2926 0L81.6743 0.855327H80.8239L78.9098 1.17951C78.3785 1.17951 77.9569 1.28718 77.5269 1.28718C77.3149 1.28718 76.9957 1.28718 76.7825 1.39365C76.4633 1.50011 76.0381 1.50011 75.7188 1.60778L75.1876 1.71424H75.2936C75.0816 1.71424 74.8684 1.82071 74.5492 1.82071H74.4432L73.1675 1.39365L73.912 1.82071C73.869 1.81469 73.8253 1.81866 73.7842 1.83233C73.7431 1.84599 73.7056 1.86898 73.6748 1.89952C73.6439 1.93005 73.6204 1.96731 73.6062 2.00841C73.592 2.04951 73.5874 2.09335 73.5927 2.13652C73.5866 2.18007 73.5906 2.22446 73.6044 2.26618C73.6183 2.3079 73.6416 2.3458 73.6726 2.3769C73.7036 2.408 73.7413 2.43144 73.7829 2.44537C73.8244 2.45929 73.8686 2.46331 73.912 2.45712H74.6564L74.4432 2.67006L73.3795 2.88419L74.124 2.99065L73.4903 3.20479L75.2936 3.09353V2.88419H75.826V2.99065H76.7789L77.6305 2.88419C77.6305 2.88419 77.7365 2.99065 78.0558 2.99065V3.20479H82.7344L83.6872 3.31125C84.1125 3.31125 84.4317 3.41772 84.8569 3.41772H85.0701L86.877 3.63185C87.0902 3.63185 87.3034 3.73832 87.5154 3.73832L87.7286 3.84598L87.8346 3.73832C88.0478 3.73832 88.3658 3.84598 88.579 3.84598C90.7063 4.16538 92.5096 4.48598 94.1093 4.91305C95.9557 5.30501 97.7689 5.84097 99.5323 6.51604C101.433 7.24655 103.251 8.17725 104.957 9.29256C106.445 10.2496 108.147 11.4291 109.529 12.7103C110.938 13.9181 112.126 15.3642 113.039 16.9833C113.251 17.3039 113.465 17.731 113.784 18.1581C114.103 18.5851 114.315 19.0122 114.634 19.5469C115.112 20.3202 115.504 21.1437 115.804 22.0028L115.91 22.1093C116.033 22.2764 116.193 22.4119 116.378 22.5049C116.563 22.5978 116.767 22.6455 116.973 22.644C117.506 22.644 118.037 22.3234 118.356 21.687C118.896 21.1487 119.215 20.2946 119.003 19.6534ZM117.195 16.8757C117.253 16.8686 117.312 16.8746 117.367 16.8932C117.422 16.9118 117.472 16.9426 117.514 16.9833L117.195 17.0898V16.8757ZM76.3573 2.35065H75.826C75.932 2.35065 76.038 2.24299 76.1452 2.24299C76.2524 2.24299 76.3573 2.24299 76.3573 2.35065Z" fill="#FFE600"/>
<path d="M29.246 44.0057L28.0752 44.2198L28.2884 41.015V40.8009C28.2884 40.588 28.2884 40.4815 28.1824 40.3738C28.0764 40.2662 27.8632 40.2674 27.65 40.3738L27.3308 40.4815C27.3168 40.4812 27.3028 40.4837 27.2898 40.4889C27.2768 40.4942 27.265 40.502 27.2551 40.5119C27.2452 40.5219 27.2374 40.5338 27.2322 40.5468C27.227 40.5599 27.2244 40.5739 27.2248 40.588V41.015C27.2349 41.2686 27.199 41.522 27.1188 41.7627C27.1359 42.0515 27.1 42.3411 27.0127 42.6168C27.0127 42.9374 27.0127 43.258 26.9055 43.4721C26.9055 43.7915 26.9055 44.0057 26.7995 44.2198V44.6469C26.801 44.7295 26.8209 44.8108 26.8578 44.8847C26.8947 44.9586 26.9477 45.0233 27.0127 45.0739C27.1188 45.1804 27.3308 45.1804 27.544 45.0739L28.8244 44.8598C28.9067 44.8582 28.9877 44.8383 29.0614 44.8015C29.1352 44.7647 29.1999 44.7119 29.2508 44.6469C29.291 44.6046 29.3214 44.554 29.3397 44.4985C29.358 44.4431 29.3639 44.3843 29.3568 44.3263V43.8992C29.3568 44.0057 29.3568 44.0057 29.2508 44.0057H29.246ZM21.0573 41.7627C20.9996 41.7049 20.9248 41.6675 20.8441 41.6562H20.5249L19.4612 41.8692C19.3552 41.8692 19.3552 41.8692 19.3552 41.9768V42.0833C19.2519 42.2848 19.18 42.5011 19.142 42.7245C19.142 42.9374 19.036 43.0439 19.036 43.1515C19.036 43.2592 18.93 43.3645 18.93 43.4721C18.93 43.5798 18.93 43.6851 18.824 43.6851C18.824 43.7915 18.824 43.7915 18.7168 43.8992C18.7239 43.9572 18.718 44.016 18.6997 44.0715C18.6813 44.1269 18.651 44.1776 18.6108 44.2198C18.6108 44.3263 18.5048 44.5392 18.5048 44.7533C18.5048 44.9675 18.3976 45.1804 18.2916 45.501C18.1856 45.0739 18.1856 44.7533 18.0796 44.4327C18.0796 44.1121 17.9724 43.7915 17.9724 43.5786C17.9724 43.3657 17.8664 43.1515 17.8664 42.9374C17.8649 42.8547 17.845 42.7735 17.8081 42.6996C17.7712 42.6256 17.7182 42.561 17.6532 42.5104C17.5472 42.4039 17.4411 42.2962 17.3351 42.2962H16.9135L15.9606 42.5104H15.8415V44.1121C15.8518 44.3659 15.8154 44.6193 15.7343 44.8598V46.8935C15.7343 47.1064 15.7343 47.2141 15.8415 47.3205C15.9487 47.427 16.1595 47.427 16.3727 47.427L16.6919 47.3205C16.706 47.3208 16.7199 47.3183 16.7329 47.3131C16.7459 47.3078 16.7577 47.3 16.7676 47.2901C16.7775 47.2801 16.7853 47.2682 16.7905 47.2552C16.7958 47.2421 16.7983 47.2281 16.798 47.2141V43.7915C16.904 44.0057 16.904 44.2198 17.0112 44.5392C17.1184 44.8586 17.1172 45.0739 17.2232 45.3945C17.3292 45.7151 17.3304 45.9281 17.4364 46.2487C17.5424 46.5693 17.5424 46.7822 17.6484 46.9963C17.6482 47.0105 17.6509 47.0245 17.6562 47.0375C17.6616 47.0506 17.6695 47.0625 17.6795 47.0724C17.6895 47.0823 17.7014 47.0902 17.7145 47.0954C17.7275 47.1006 17.7415 47.1031 17.7556 47.1028C17.8125 47.1612 17.8871 47.199 17.9676 47.2105H18.3928C18.4507 47.2177 18.5094 47.2118 18.5647 47.1932C18.6199 47.1746 18.6703 47.1437 18.712 47.1028C18.7261 47.1033 18.7402 47.1009 18.7534 47.0957C18.7665 47.0906 18.7785 47.0828 18.7885 47.0728C18.7985 47.0628 18.8064 47.0509 18.8117 47.0377C18.817 47.0246 18.8196 47.0105 18.8192 46.9963C18.9252 46.8899 18.9252 46.6757 19.0312 46.4628C19.1373 46.2499 19.1373 46.0345 19.2445 45.8216C19.3517 45.6087 19.3505 45.3945 19.4565 45.0739C19.5637 44.8598 19.5637 44.6469 19.6697 44.3263C19.7757 44.1121 19.7757 43.8992 19.8817 43.6851C19.9564 43.5556 19.9936 43.4076 19.9889 43.258V44.4327C20.0058 44.6521 19.969 44.8722 19.8817 45.0739C19.8984 45.2931 19.862 45.5131 19.7757 45.7151V46.4628C19.7702 46.5788 19.808 46.6927 19.8817 46.7822C19.9889 46.8899 20.2009 46.8899 20.4141 46.8899L20.7333 46.7822H20.8441V45.7151C20.8269 45.4259 20.8629 45.136 20.9501 44.8598C20.933 44.5371 20.9693 44.2137 21.0573 43.9028V42.2998C21.1633 41.8692 21.1633 41.7627 21.0573 41.7627ZM25.8467 44.4327C25.7407 44.1121 25.6347 43.7915 25.5286 43.3645C25.4226 42.9374 25.3154 42.2962 25.1022 41.6562C25.1022 41.5486 25.1022 41.4421 24.9962 41.4421C24.9962 41.3356 24.8902 41.3356 24.8902 41.2292C24.8902 41.1227 24.7842 41.1215 24.677 41.1215H24.3578L23.7206 41.2292H23.5074L23.4014 41.3356C23.4014 41.4421 23.2954 41.5486 23.1882 41.8692C23.0821 42.0833 22.9761 42.4039 22.8689 42.6168L22.5509 43.5738C22.4437 43.8928 22.3373 44.2118 22.2317 44.5308C22.1245 44.8514 22.0185 45.0656 22.0185 45.3862C21.9416 45.5531 21.9053 45.7359 21.9125 45.9197C21.9125 46.0262 21.9125 46.0262 22.0185 46.1338L22.1245 46.2403H22.5509L22.8689 46.1338C22.8831 46.1342 22.8972 46.1316 22.9103 46.1263C22.9235 46.121 22.9354 46.1131 22.9455 46.103C22.9555 46.093 22.9634 46.081 22.9686 46.0677C22.9739 46.0545 22.9765 46.0404 22.9761 46.0262L23.1882 45.0692L24.3578 44.855C24.3578 44.9627 24.3578 45.1756 24.465 45.2821C24.465 45.3898 24.571 45.4962 24.571 45.6027C24.677 45.7104 24.677 45.7104 24.7842 45.7104H25.2094L25.5286 45.6027C25.6347 45.6027 25.6347 45.6027 25.6347 45.4962V45.0692C25.9491 44.9627 25.8467 44.7533 25.8467 44.4327ZM23.6134 43.8992L24.141 41.972L24.4602 43.6803L23.6134 43.8992ZM38.29 38.6656C38.184 38.6656 38.0768 38.5579 37.9708 38.5579H37.4396C37.3324 38.5579 37.3324 38.5579 37.3324 38.6656C37.2748 38.723 37.2375 38.7978 37.2264 38.8785C37.1203 39.0926 37.1203 39.3056 37.0131 39.5197C36.9059 39.7338 36.9071 39.8403 36.8011 40.0532C36.6951 40.1609 36.6951 40.3738 36.5879 40.588C36.4626 40.8286 36.3559 41.0786 36.2687 41.3356C36.1627 41.1215 36.1627 40.9086 36.0567 40.8009C36.0567 40.6944 35.9507 40.588 35.9507 40.4815C35.9507 40.375 35.9507 40.3738 35.8435 40.2674V40.058C35.8435 39.9515 35.8435 39.9515 35.7375 39.7386C35.7266 39.6575 35.6893 39.5822 35.6315 39.5245C35.6315 39.418 35.5243 39.418 35.4183 39.3104C35.3123 39.3104 35.2063 39.2039 35.0991 39.2039H34.6738C34.3546 39.3103 34.2486 39.3104 34.2486 39.418C34.2619 39.531 34.298 39.6401 34.3546 39.7386C34.4618 39.8451 34.4618 40.058 34.5678 40.2721C34.6738 40.4863 34.7799 40.6992 34.887 40.9133C34.9942 41.1275 35.0991 41.3404 35.0991 41.4469C35.1106 41.5281 35.1482 41.6033 35.2063 41.661C35.2063 41.7675 35.3123 41.7675 35.3123 41.8739L35.4183 41.9816L35.5243 42.0881C35.5243 42.4087 35.5243 42.7293 35.4183 42.9422V43.3693C35.4183 43.5834 35.4183 43.7963 35.5243 43.7963C35.6315 43.904 35.8435 43.904 36.0567 43.904L36.3759 43.7963H36.4819V42.1898C36.6135 42.0683 36.7217 41.9235 36.8011 41.7627C36.9071 41.5486 37.0131 41.4421 37.1203 41.2292C37.2275 41.0162 37.3324 40.8009 37.4396 40.588L37.7576 39.9468C37.8648 39.7338 37.8648 39.6262 37.9708 39.4132C37.9708 39.3056 38.0768 39.1991 38.0768 39.0926C38.3912 38.772 38.3912 38.6656 38.2852 38.6656H38.29ZM43.9262 37.4908L43.607 37.5973C43.593 37.597 43.5791 37.5995 43.5661 37.6047C43.5531 37.61 43.5413 37.6178 43.5313 37.6278C43.5214 37.6377 43.5136 37.6496 43.5084 37.6626C43.5032 37.6757 43.5007 37.6897 43.501 37.7038V38.1308C43.5112 38.3845 43.4752 38.6378 43.395 38.8785C43.4124 39.1678 43.376 39.4579 43.2878 39.7338C43.2878 40.0532 43.2878 40.3738 43.1818 40.588C43.1818 40.9086 43.1818 41.1215 43.0758 41.3356V41.7627C43.0772 41.8452 43.097 41.9264 43.1337 42.0003C43.1703 42.0742 43.223 42.1389 43.2878 42.1898C43.395 42.2962 43.607 42.2962 43.8202 42.1898L44.1394 42.0833H44.2454V37.9179C44.2454 37.7038 44.2454 37.4908 44.1394 37.3832C44.3467 37.3832 44.1347 37.3832 43.9215 37.4908H43.9262ZM49.3505 40.8009C49.3505 40.6944 49.2433 40.4815 49.2433 40.1609C49.1373 39.8403 49.0313 39.5197 48.9241 39.0926C48.8169 38.6656 48.712 38.0244 48.4988 37.3832C48.4988 37.2767 48.4988 37.1702 48.3928 37.1702C48.3928 37.0626 48.2868 37.0626 48.2868 36.9561C48.2868 36.8496 48.1796 36.8496 48.0736 36.8496H47.7544L47.1172 36.9561H46.904L46.798 37.0626C46.798 37.1702 46.6908 37.2767 46.5848 37.5973C46.4787 37.8102 46.3727 38.1308 46.2655 38.345C46.1599 38.664 46.0535 38.983 45.9463 39.302L45.6283 40.259C45.5211 40.5796 45.4151 40.7925 45.4151 41.1131C45.3382 41.2804 45.3019 41.4637 45.3091 41.6478C45.3091 41.7543 45.3091 41.7543 45.4151 41.8608L45.5211 41.9684H45.9463L46.2655 41.8608C46.2796 41.8613 46.2937 41.8589 46.3069 41.8537C46.32 41.8485 46.332 41.8407 46.342 41.8308C46.352 41.8208 46.3599 41.8089 46.3652 41.7957C46.3705 41.7826 46.3731 41.7685 46.3727 41.7543L46.5848 40.7973L47.7544 40.5844C47.7544 40.6908 47.7544 40.905 47.8616 41.0114C47.8616 41.1179 47.9676 41.2256 47.9676 41.332C48.0736 41.4385 48.0736 41.4385 48.1796 41.4385H48.5965L48.9145 41.332C49.0217 41.332 49.0217 41.332 49.0217 41.2256V41.1179C49.3457 41.015 49.3457 40.9086 49.3457 40.8009H49.3505ZM47.01 39.6262L47.5424 37.7038L47.8616 39.4132L47.01 39.6262ZM40.7353 38.9814H40.9485C40.9625 38.9811 40.9765 38.9836 40.9895 38.9888C41.0025 38.9941 41.0143 39.0019 41.0242 39.0118C41.0341 39.0218 41.0419 39.0337 41.0471 39.0467C41.0523 39.0598 41.0548 39.0738 41.0545 39.0878V39.6214H41.1617C41.3737 39.6214 41.5869 39.5149 41.7989 39.3008C41.9504 39.1235 42.0269 38.8939 42.0122 38.6608C42.0122 38.3418 41.9058 38.128 41.6929 38.0196C41.3995 37.8666 41.0598 37.8287 40.7401 37.9131C40.5144 37.9352 40.2967 38.008 40.1028 38.1261C39.8674 38.2309 39.6515 38.3753 39.4644 38.5531C39.291 38.7034 39.1468 38.8847 39.0392 39.0878C38.9196 39.3205 38.8472 39.5746 38.826 39.8355C38.8092 40.0548 38.846 40.2749 38.9332 40.4767C39.0392 40.5832 39.1452 40.7961 39.2512 40.7961C39.3584 40.9038 39.5704 40.9038 39.6776 41.0102C39.7836 41.0102 39.9956 41.1167 40.1028 41.1167C40.21 41.1167 40.3148 41.2244 40.422 41.2244C40.5292 41.2244 40.5281 41.3308 40.5281 41.4373V41.6514L40.422 41.7579C40.3644 41.8157 40.2895 41.8531 40.2088 41.8644H39.5704C39.4644 41.8644 39.3584 41.7579 39.2512 41.7579C39.1708 41.7467 39.0963 41.7093 39.0392 41.6514C38.9332 41.6514 38.9332 41.5438 38.826 41.6514C38.72 41.6514 38.72 41.7579 38.614 41.8644V42.5056C38.614 42.612 38.614 42.612 38.72 42.7197C38.826 42.8274 38.9332 42.8262 39.0392 42.9326C39.1452 42.9326 39.3584 43.0391 39.5704 43.0391H40.2088C40.4381 43.0339 40.6605 42.9598 40.8473 42.8262C41.0488 42.7176 41.2289 42.5729 41.3785 42.3991C41.5081 42.2359 41.6154 42.0561 41.6977 41.8644C41.7746 41.6975 41.8109 41.5146 41.8037 41.3308C41.8205 41.1116 41.7841 40.8916 41.6977 40.6896C41.5917 40.5832 41.4845 40.4767 41.3785 40.369C41.2725 40.2614 41.0593 40.2626 40.9533 40.1561C40.7401 40.1561 40.6341 40.0484 40.5281 40.0484C40.422 40.0484 40.3148 39.942 40.2088 39.942C40.1028 39.8355 40.1028 39.8355 40.1028 39.6214C40.1028 39.5149 40.2088 39.4084 40.3149 39.3008C40.5185 39.0926 40.6245 38.9814 40.7353 38.9814ZM33.827 42.929C33.721 42.6084 33.6138 42.2878 33.5078 41.8608C33.4018 41.4337 33.2946 40.7925 33.0825 40.1525C33.0825 40.0449 33.0825 39.9384 32.9765 39.9384C32.9765 39.8319 32.8693 39.8319 32.8693 39.7255C32.8693 39.619 32.7633 39.6178 32.6573 39.6178H32.3381L31.6997 39.7255H31.4877L31.3805 39.8319C31.3805 39.9384 31.2745 40.0449 31.1685 40.3655C31.0613 40.5796 30.9553 40.9002 30.8493 41.1131C30.7432 41.4337 30.636 41.7543 30.53 42.0701C30.424 42.3859 30.3168 42.7113 30.2108 43.0271C30.1048 43.3429 29.9988 43.5619 29.9988 43.8825C29.9211 44.0491 29.8844 44.2321 29.8916 44.416C29.8916 44.5225 29.8916 44.5225 29.9988 44.6301L30.1048 44.7366H30.53L30.8493 44.6301C30.8633 44.6303 30.8773 44.6276 30.8903 44.6222C30.9033 44.6169 30.9151 44.6089 30.925 44.5989C30.9349 44.5888 30.9427 44.5769 30.9479 44.5638C30.9531 44.5506 30.9556 44.5366 30.9553 44.5225L31.1685 43.5655L32.3381 43.3513C32.3381 43.459 32.3381 43.6719 32.4441 43.7784C32.4441 43.8861 32.5501 43.9925 32.5501 44.099C32.6573 44.2066 32.6573 44.2066 32.7633 44.2066H33.1886L33.5078 44.099C33.6138 44.099 33.6138 44.099 33.6138 43.9925V43.5655C33.9246 43.4721 33.9246 43.258 33.8186 42.9374L33.827 42.929ZM31.5937 42.502L32.1249 40.5796L32.4441 42.2878L31.5937 42.502Z" fill="#939598"/>
</svg>
