<svg width="208" height="52" viewBox="0 0 208 52" fill="none" xmlns="http://www.w3.org/2000/svg">
<rect x="1" y="1" width="78" height="50" rx="3" fill="white" stroke="#1A1A1A" stroke-width="2"/>
<rect x="11" y="19" width="58" height="22" rx="1" fill="white" stroke="#1A1A1A" stroke-width="2"/>
<path fill-rule="evenodd" clip-rule="evenodd" d="M142.903 9.14819C144.31 8.14353 146.015 7.64286 147.741 7.72718C149.093 7.67347 150.439 7.92561 151.679 8.4648V8.26955C151.679 7.83458 151.582 7.4051 151.394 7.01273C151.206 6.62036 150.933 6.27513 150.594 6.00246C149.904 5.37415 149 5.03275 148.067 5.04788C147.375 5.03 146.691 5.19143 146.081 5.5165C145.471 5.84157 144.955 6.31917 144.585 6.90276C144.545 6.96071 144.484 7.00102 144.416 7.01518C144.347 7.02934 144.275 7.01626 144.216 6.9787L141.753 5.42752C141.721 5.41033 141.693 5.38557 141.672 5.35535C141.652 5.32513 141.639 5.29038 141.634 5.25398C141.607 5.18796 141.607 5.1139 141.634 5.04788C142.33 4.05299 143.267 3.25188 144.359 2.72041C145.45 2.18894 146.659 1.94462 147.871 2.01053C149.724 1.91598 151.541 2.53744 152.948 3.74617C153.582 4.3562 154.077 5.09501 154.401 5.91275C154.724 6.73049 154.869 7.60814 154.825 8.48651V17.6527C154.825 17.7246 154.796 17.7935 154.745 17.8444C154.694 17.8952 154.625 17.9238 154.553 17.9238H151.874C151.802 17.9238 151.733 17.8952 151.682 17.8444C151.632 17.7935 151.603 17.7246 151.603 17.6527V16.2425C151.086 16.9325 150.412 17.4892 149.636 17.8665C148.861 18.2438 148.007 18.4308 147.145 18.412C145.557 18.4715 144.005 17.9246 142.806 16.8825C142.248 16.4122 141.801 15.8236 141.499 15.1594C141.197 14.4952 141.047 13.772 141.059 13.0425C141.034 12.2934 141.189 11.5493 141.51 10.872C141.83 10.1946 142.308 9.60366 142.903 9.14819ZM151.198 12.9103C151.42 12.4383 151.543 11.9259 151.56 11.4045C150.559 10.7632 149.383 10.4521 148.197 10.515C147.241 10.4817 146.3 10.7513 145.507 11.2852C145.199 11.4776 144.944 11.7444 144.766 12.0609C144.588 12.3774 144.492 12.7335 144.487 13.0967C144.486 13.4111 144.559 13.7215 144.7 14.0024C144.842 14.2832 145.047 14.5267 145.301 14.713C145.875 15.1552 146.583 15.3885 147.307 15.3746C147.857 15.3754 148.402 15.2675 148.91 15.0572C149.418 14.8468 149.88 14.5381 150.269 14.1489C150.66 13.8038 150.976 13.3823 151.198 12.9103ZM131.969 5.11298C134.204 5.11298 135.321 6.19771 135.375 8.48653V17.6527C135.375 17.7246 135.404 17.7935 135.454 17.8444C135.505 17.8953 135.574 17.9239 135.646 17.9239H138.445C138.517 17.9239 138.586 17.8953 138.637 17.8444C138.687 17.7935 138.716 17.7246 138.716 17.6527V8.30214C138.823 6.61168 138.266 4.94616 137.165 3.65939C136.194 2.77354 134.971 2.21275 133.666 2.05524C132.361 1.89773 131.04 2.15137 129.886 2.78074C129.24 3.11861 128.668 3.58349 128.205 4.14754V2.76989C128.205 2.69796 128.176 2.62901 128.125 2.57815C128.075 2.52729 128.006 2.4987 127.934 2.4987H125.265C125.193 2.4987 125.124 2.52729 125.073 2.57815C125.023 2.62901 124.994 2.69796 124.994 2.76989V17.6527C124.994 17.7246 125.023 17.7935 125.073 17.8444C125.124 17.8953 125.193 17.9239 125.265 17.9239H128.053C128.125 17.9239 128.194 17.8953 128.245 17.8444C128.296 17.7935 128.324 17.7246 128.324 17.6527V9.4194C128.306 8.30244 128.691 7.21635 129.409 6.3604C129.713 5.97202 130.102 5.65788 130.545 5.44177C130.989 5.22565 131.476 5.11326 131.969 5.11298ZM95.0224 2.74821C95.9848 2.25303 97.0534 1.9998 98.1356 2.01052C99.1243 2.00259 100.102 2.21454 100.999 2.63102C101.896 3.04751 102.689 3.65814 103.321 4.4187C104.72 6.0261 105.491 8.0854 105.491 10.2166C105.491 12.3479 104.72 14.4073 103.321 16.0147C102.688 16.7738 101.895 17.3828 100.998 17.7974C100.101 18.2121 99.1236 18.422 98.1356 18.412C97.0548 18.4214 95.9874 18.1721 95.0224 17.6852C94.3488 17.3457 93.7481 16.8777 93.2542 16.3076L93.341 17.6418V24.2154C93.341 24.2873 93.3125 24.3562 93.2616 24.4071C93.2107 24.458 93.1418 24.4865 93.0699 24.4865H90.2712C90.1993 24.4865 90.1303 24.458 90.0794 24.4071C90.0286 24.3562 90 24.2873 90 24.2154V2.76986C90 2.69794 90.0286 2.62898 90.0794 2.57812C90.1303 2.52727 90.1993 2.49867 90.2712 2.49867H92.9397C93.0116 2.49867 93.0806 2.52727 93.1314 2.57812C93.1823 2.62898 93.2109 2.69794 93.2109 2.76986V4.16923C93.7106 3.57605 94.3273 3.0923 95.0224 2.74821ZM100.847 13.8885C101.743 12.8783 102.209 11.5596 102.149 10.2113V10.1787C102.191 8.84304 101.726 7.54104 100.847 6.53397C100.458 6.07751 99.9712 5.71323 99.4235 5.4675C98.8757 5.22176 98.2803 5.1007 97.6801 5.11295C97.066 5.09154 96.4547 5.20807 95.8916 5.45399C95.3284 5.69991 94.8275 6.06895 94.4258 6.53397C93.6033 7.58953 93.1567 8.88936 93.1567 10.2275C93.1567 11.5656 93.6033 12.8655 94.4258 13.9211C94.8301 14.3816 95.332 14.7461 95.8949 14.9882C96.4579 15.2302 97.0678 15.3437 97.6801 15.3204C98.2814 15.3329 98.8778 15.2108 99.4259 14.963C99.9739 14.7153 100.46 14.3482 100.847 13.8885ZM119.223 17.3272C117.961 18.0649 116.52 18.4402 115.058 18.412C113.995 18.4599 112.934 18.2784 111.948 17.8797C110.961 17.481 110.072 16.8745 109.341 16.1015C107.876 14.5057 107.097 12.398 107.172 10.2329C107.118 8.07793 107.895 5.98482 109.341 4.38612C110.049 3.65214 110.895 3.0662 111.831 2.66234C112.768 2.25848 113.775 2.0448 114.794 2.03369C115.814 2.02259 116.825 2.21428 117.77 2.59765C118.715 2.98103 119.574 3.54842 120.297 4.26681C121.733 5.99605 122.458 8.20622 122.326 10.4499V10.7753C122.316 10.8417 122.283 10.9026 122.234 10.948C122.185 10.9935 122.121 11.0206 122.054 11.0248H110.643C110.688 12.1801 111.173 13.2743 111.999 14.0838C112.843 14.9045 113.978 15.357 115.155 15.3421C115.99 15.3444 116.807 15.1061 117.509 14.6559C118.211 14.2058 118.768 13.5627 119.115 12.8038C119.13 12.7731 119.151 12.7458 119.176 12.7236C119.202 12.7014 119.232 12.6846 119.265 12.6745C119.297 12.6643 119.332 12.6609 119.365 12.6645C119.399 12.6681 119.432 12.6786 119.462 12.6953L121.957 13.9102C121.991 13.9257 122.021 13.9483 122.045 13.9763C122.069 14.0044 122.087 14.0374 122.098 14.073C122.125 14.139 122.125 14.2131 122.098 14.2791C121.439 15.5409 120.444 16.5959 119.223 17.3272ZM112.27 5.98074C111.618 6.55415 111.153 7.30988 110.936 8.15023L118.822 8.11766C118.706 7.30572 118.301 6.56264 117.683 6.0241C116.876 5.3613 115.851 5.02461 114.808 5.08038C113.88 5.05818 112.977 5.37873 112.27 5.98074ZM168.395 8.48653V17.6527C168.395 17.7246 168.423 17.7935 168.474 17.8444C168.525 17.8953 168.594 17.9239 168.666 17.9239H171.454C171.526 17.9239 171.595 17.8953 171.646 17.8444C171.696 17.7935 171.725 17.7246 171.725 17.6527V8.30214C171.827 6.61418 171.275 4.95174 170.185 3.65938C169.605 3.09356 168.915 2.65468 168.156 2.37078C167.398 2.08689 166.589 1.9642 165.781 2.01054C164.769 2.01561 163.775 2.28086 162.895 2.78074C162.253 3.1252 161.682 3.58911 161.214 4.14753V2.76988C161.214 2.69796 161.185 2.629 161.134 2.57814C161.083 2.52729 161.014 2.49869 160.943 2.49869H158.274C158.202 2.49869 158.133 2.52729 158.082 2.57814C158.032 2.629 158.003 2.69796 158.003 2.76988V17.6527C158.003 17.7246 158.032 17.7935 158.082 17.8444C158.133 17.8953 158.202 17.9239 158.274 17.9239H161.073C161.145 17.9239 161.214 17.8953 161.264 17.8444C161.315 17.7935 161.344 17.7246 161.344 17.6527V9.41939C161.331 8.30323 161.715 7.21877 162.429 6.3604C162.736 5.96766 163.13 5.65091 163.58 5.43461C164.029 5.21831 164.522 5.10828 165.021 5.11298C167.223 5.11298 168.33 6.20856 168.395 8.48653ZM184.834 24.4706C183.861 24.8436 182.822 25.015 181.781 24.9747C180.984 24.9763 180.191 24.8631 179.427 24.6384C178.699 24.4312 178.005 24.1207 177.366 23.7163C176.762 23.3308 176.223 22.851 175.771 22.2953C175.323 21.7429 174.978 21.1147 174.751 20.4404C174.739 20.4084 174.734 20.3742 174.735 20.3399C174.736 20.3057 174.743 20.272 174.758 20.2408C174.772 20.2095 174.792 20.1813 174.817 20.1579C174.842 20.1344 174.871 20.1162 174.903 20.1042L177.539 19.0194C177.609 18.9916 177.687 18.9916 177.756 19.0194C177.822 19.0527 177.875 19.1058 177.908 19.1712C178.177 19.9666 178.694 20.6547 179.383 21.1346C180.1 21.6397 180.959 21.902 181.835 21.8831C182.455 21.9213 183.076 21.8258 183.657 21.6031C184.237 21.3804 184.762 21.0357 185.198 20.5923C186.045 19.5988 186.477 18.3164 186.402 17.0126V16.2425C185.88 16.8484 185.242 17.3428 184.525 17.696C183.581 18.1743 182.536 18.4198 181.477 18.412C180.488 18.4167 179.51 18.2078 178.61 17.7997C177.709 17.3915 176.907 16.7937 176.259 16.0472C174.832 14.4415 174.058 12.3594 174.09 10.2113C174.053 8.07208 174.828 5.99842 176.259 4.40783C176.904 3.65477 177.704 3.05051 178.605 2.63664C179.506 2.22277 180.486 2.00911 181.477 2.01051C182.536 2.00271 183.581 2.24821 184.525 2.72648C185.243 3.0836 185.881 3.58163 186.402 4.19086V2.76985C186.402 2.69792 186.43 2.62897 186.481 2.57811C186.532 2.52725 186.601 2.49866 186.673 2.49866H189.341C189.413 2.49866 189.482 2.52725 189.533 2.57811C189.584 2.62897 189.613 2.69792 189.613 2.76985V16.9909C189.662 18.0563 189.495 19.1205 189.122 20.1197C188.749 21.1189 188.178 22.0324 187.443 22.8052C186.695 23.5311 185.808 24.0977 184.834 24.4706ZM185.046 13.9211C185.936 12.8952 186.401 11.5685 186.347 10.2113V10.1787C186.381 8.84244 185.912 7.54215 185.035 6.53396C184.637 6.08714 184.149 5.72954 183.603 5.4847C183.057 5.23985 182.466 5.11327 181.867 5.11327C181.269 5.11327 180.678 5.23985 180.132 5.4847C179.586 5.72954 179.098 6.08714 178.7 6.53396C177.862 7.57633 177.405 8.87374 177.405 10.2113C177.405 11.5488 177.862 12.8461 178.7 13.8885C179.09 14.3478 179.578 14.7146 180.128 14.9622C180.678 15.2098 181.276 15.3322 181.878 15.3204C182.478 15.3407 183.074 15.2255 183.622 14.9832C184.171 14.7409 184.657 14.3778 185.046 13.9211ZM98.1356 27.5347C97.0542 27.5202 95.9856 27.7696 95.0224 28.2615C94.3297 28.6094 93.7138 29.0926 93.2109 29.6825V28.2832C93.2109 28.2112 93.1823 28.1423 93.1314 28.0914C93.0806 28.0406 93.0116 28.012 92.9397 28.012H90.2712C90.1993 28.012 90.1303 28.0406 90.0794 28.0914C90.0286 28.1423 90 28.2112 90 28.2832V49.7287C90 49.8006 90.0286 49.8695 90.0794 49.9204C90.1303 49.9713 90.1993 49.9999 90.2712 49.9999H93.0699C93.1418 49.9999 93.2107 49.9713 93.2616 49.9204C93.3125 49.8695 93.341 49.8006 93.341 49.7287V43.1551L93.2542 41.8208C93.7481 42.391 94.3488 42.859 95.0224 43.1985C96.3938 43.8852 97.9554 44.0938 99.459 43.7912C100.963 43.4885 102.322 42.6919 103.321 41.528C104.72 39.9206 105.491 37.8612 105.491 35.73C105.491 33.5987 104.72 31.5394 103.321 29.932C102.688 29.1728 101.895 28.5639 100.998 28.1492C100.101 27.7346 99.1236 27.5247 98.1356 27.5347ZM102.149 35.7245C102.209 37.0728 101.743 38.3917 100.847 39.4018C100.46 39.8615 99.9739 40.2286 99.4259 40.4763C98.8778 40.7241 98.2814 40.8462 97.6801 40.8337C97.0678 40.857 96.4579 40.7435 95.8949 40.5014C95.332 40.2594 94.8301 39.8948 94.4258 39.4343C93.5549 38.3993 93.1023 37.0761 93.1567 35.7245C93.1131 34.3877 93.5651 33.0819 94.4258 32.0581C94.8255 31.5899 95.3257 31.2179 95.8892 30.97C96.4527 30.7221 97.0649 30.6045 97.6801 30.6262C98.2814 30.6137 98.8778 30.7358 99.4259 30.9836C99.9739 31.2313 100.46 31.5984 100.847 32.0581C101.734 33.069 102.2 34.3809 102.149 35.7245ZM108.072 21.1455H110.871C111.02 21.1455 111.142 21.2669 111.142 21.4167V43.1659C111.142 43.3157 111.02 43.4371 110.871 43.4371H108.072C107.922 43.4371 107.801 43.3157 107.801 43.1659V21.4167C107.801 21.2669 107.922 21.1455 108.072 21.1455ZM120.373 27.5347C119.162 27.4686 117.954 27.7118 116.863 28.2412C115.772 28.7707 114.833 29.569 114.136 30.5611C114.12 30.5933 114.112 30.6285 114.112 30.6642C114.112 30.6999 114.12 30.7351 114.136 30.7672C114.142 30.8046 114.155 30.8404 114.176 30.8721C114.196 30.9039 114.223 30.931 114.255 30.9517L116.717 32.492C116.777 32.5296 116.848 32.5427 116.917 32.5285C116.986 32.5143 117.046 32.474 117.086 32.4161C117.455 31.831 117.971 31.3522 118.581 31.0269C119.192 30.7016 119.877 30.5411 120.568 30.5611C121.498 30.5466 122.398 30.8881 123.085 31.5157C123.425 31.7873 123.699 32.1324 123.887 32.525C124.075 32.9176 124.171 33.3476 124.17 33.7829V33.9781C122.963 33.4551 121.655 33.2033 120.34 33.2405C118.617 33.1561 116.916 33.6569 115.513 34.6615C114.919 35.1176 114.442 35.7086 114.121 36.3858C113.8 37.063 113.645 37.8068 113.669 38.5557C113.658 39.2867 113.809 40.011 114.111 40.6768C114.413 41.3425 114.859 41.9332 115.416 42.4066C116.619 43.442 118.169 43.9845 119.755 43.9252C120.617 43.9379 121.471 43.7483 122.247 43.3715C123.023 42.9948 123.7 42.4414 124.224 41.7557V43.1551C124.224 43.227 124.252 43.296 124.303 43.3468C124.354 43.3977 124.423 43.4263 124.495 43.4263H127.174C127.246 43.4263 127.315 43.3977 127.366 43.3468C127.417 43.296 127.446 43.227 127.446 43.1551V34.0432C127.487 33.1651 127.341 32.2883 127.018 31.471C126.694 30.6536 126.2 29.9146 125.569 29.3029C124.138 28.0519 122.27 27.4164 120.373 27.5347ZM124.105 36.9286C124.087 37.4482 123.964 37.9589 123.742 38.429C123.52 38.8991 123.204 39.3188 122.814 39.6622C122.427 40.0549 121.966 40.3665 121.458 40.5788C120.949 40.7912 120.403 40.8999 119.852 40.8988C119.127 40.9045 118.421 40.6678 117.846 40.2263C117.59 40.0425 117.382 39.7995 117.24 39.5181C117.099 39.2366 117.027 38.9251 117.032 38.61C117.037 38.2468 117.133 37.8906 117.311 37.5741C117.489 37.2576 117.744 36.9909 118.052 36.7984C118.841 36.266 119.779 35.9965 120.731 36.0283C121.908 35.9711 123.073 36.286 124.061 36.9286H124.105ZM140.777 28.012H143.814C143.864 28.0075 143.914 28.0174 143.958 28.0404C144.003 28.0635 144.039 28.0988 144.064 28.1421C144.088 28.1792 144.101 28.2226 144.101 28.2669C144.101 28.3112 144.088 28.3545 144.064 28.3916L134.746 49.8371C134.725 49.8856 134.69 49.9269 134.646 49.9558C134.601 49.9847 134.549 50 134.496 49.9999H131.611C131.566 50.0014 131.521 49.9912 131.481 49.9703C131.441 49.9493 131.408 49.9184 131.383 49.8805C131.362 49.8403 131.351 49.7956 131.351 49.7503C131.351 49.705 131.362 49.6604 131.383 49.6201L134.8 42.2222L128.715 28.3916C128.69 28.3545 128.678 28.3112 128.678 28.2669C128.678 28.2226 128.69 28.1792 128.715 28.1421C128.737 28.1038 128.768 28.0717 128.806 28.0489C128.844 28.0261 128.887 28.0134 128.932 28.012H131.969C132.024 28.0111 132.077 28.0274 132.122 28.0586C132.166 28.0897 132.2 28.1341 132.218 28.1855L136.438 38.3388L140.528 28.1855C140.548 28.1358 140.583 28.0931 140.627 28.0623C140.671 28.0315 140.723 28.0141 140.777 28.012ZM153.989 27.5347C152.908 27.5202 151.839 27.7696 150.876 28.2615C150.183 28.6094 149.568 29.0926 149.065 29.6825V28.2832C149.065 28.2112 149.036 28.1423 148.985 28.0914C148.934 28.0406 148.865 28.012 148.793 28.012H146.125C146.053 28.012 145.984 28.0406 145.933 28.0914C145.882 28.1423 145.854 28.2112 145.854 28.2832V49.7287C145.854 49.8006 145.882 49.8695 145.933 49.9204C145.984 49.9713 146.053 49.9999 146.125 49.9999H148.924C148.996 49.9999 149.064 49.9713 149.115 49.9204C149.166 49.8695 149.195 49.8006 149.195 49.7287V43.1551L149.108 41.8208C149.602 42.391 150.202 42.859 150.876 43.1985C152.247 43.8852 153.809 44.0938 155.313 43.7912C156.816 43.4885 158.176 42.6919 159.174 41.528C160.574 39.9206 161.345 37.8612 161.345 35.73C161.345 33.5987 160.574 31.5394 159.174 29.932C158.542 29.1728 157.749 28.5639 156.852 28.1492C155.955 27.7346 154.977 27.5247 153.989 27.5347ZM158.003 35.7245C158.062 37.0707 157.599 38.3877 156.712 39.4018C156.321 39.8611 155.834 40.2278 155.284 40.4755C154.734 40.7231 154.137 40.8455 153.534 40.8337C152.921 40.857 152.312 40.7435 151.749 40.5014C151.186 40.2594 150.684 39.8948 150.28 39.4343C149.409 38.3993 148.956 37.0761 149.01 35.7245C148.967 34.3877 149.419 33.0819 150.28 32.0581C150.68 31.6072 151.17 31.2462 151.72 30.999C152.27 30.7518 152.866 30.6239 153.469 30.6239C154.071 30.6239 154.667 30.7518 155.217 30.999C155.767 31.2462 156.258 31.6072 156.658 32.0581C157.556 33.0647 158.037 34.3758 158.003 35.7245ZM166.371 28.2412C167.462 27.7118 168.67 27.4686 169.881 27.5347C171.778 27.4164 173.646 28.0519 175.077 29.3029C175.708 29.9146 176.202 30.6536 176.526 31.471C176.849 32.2883 176.995 33.1651 176.953 34.0432V43.1551C176.953 43.227 176.925 43.296 176.874 43.3468C176.823 43.3977 176.754 43.4263 176.682 43.4263H174.003C173.931 43.4263 173.862 43.3977 173.811 43.3468C173.76 43.296 173.732 43.227 173.732 43.1551V41.7557C173.208 42.4414 172.531 42.9948 171.755 43.3715C170.979 43.7483 170.125 43.9379 169.263 43.9252C167.677 43.9845 166.127 43.442 164.924 42.4066C164.367 41.9332 163.921 41.3425 163.619 40.6768C163.317 40.011 163.166 39.2867 163.177 38.5557C163.153 37.8068 163.308 37.063 163.629 36.3858C163.949 35.7086 164.427 35.1176 165.021 34.6615C166.424 33.6569 168.125 33.1561 169.848 33.2405C171.163 33.2033 172.47 33.4551 173.678 33.9781V33.7829C173.679 33.3476 173.583 32.9176 173.395 32.525C173.207 32.1324 172.933 31.7873 172.593 31.5157C171.906 30.8881 171.006 30.5466 170.076 30.5611C169.385 30.5411 168.7 30.7016 168.089 31.0269C167.479 31.3522 166.963 31.831 166.594 32.4161C166.554 32.474 166.494 32.5143 166.425 32.5285C166.356 32.5427 166.285 32.5296 166.225 32.492L163.763 30.9517C163.731 30.931 163.704 30.9039 163.684 30.8721C163.663 30.8404 163.65 30.8046 163.644 30.7672C163.628 30.7351 163.62 30.6999 163.62 30.6642C163.62 30.6285 163.628 30.5933 163.644 30.5611C164.341 29.569 165.28 28.7707 166.371 28.2412ZM173.25 38.429C173.472 37.9589 173.595 37.4482 173.613 36.9286C172.612 36.2771 171.43 35.9618 170.239 36.0283C169.287 35.9951 168.349 36.2647 167.56 36.7984C167.252 36.9909 166.997 37.2576 166.819 37.5741C166.641 37.8906 166.545 38.2468 166.54 38.61C166.535 38.9251 166.606 39.2366 166.748 39.5181C166.89 39.7995 167.098 40.0425 167.353 40.2263C167.929 40.6678 168.635 40.9045 169.36 40.8988C169.911 40.8999 170.457 40.7912 170.966 40.5788C171.474 40.3665 171.935 40.0549 172.322 39.6622C172.712 39.3188 173.028 38.8991 173.25 38.429ZM187.193 34.3144L184.937 33.7287C183.494 33.4032 182.768 32.8826 182.768 32.1775C182.784 31.9476 182.86 31.726 182.99 31.5354C183.119 31.3448 183.297 31.192 183.505 31.0927C184.048 30.7522 184.676 30.5751 185.317 30.5829C186.017 30.5764 186.708 30.7482 187.324 31.0819C187.881 31.3808 188.327 31.8528 188.593 32.4269C188.621 32.4906 188.673 32.5408 188.738 32.567C188.803 32.5933 188.875 32.5936 188.94 32.568L191.435 31.4832C191.469 31.4701 191.499 31.4503 191.525 31.4251C191.552 31.3999 191.572 31.3697 191.586 31.3363C191.601 31.3029 191.608 31.267 191.608 31.2308C191.608 31.1945 191.601 31.1587 191.587 31.1252C191.12 30.0044 190.291 29.0724 189.233 28.4784C187.981 27.7895 186.566 27.4537 185.139 27.5072C183.712 27.5607 182.326 28.0015 181.13 28.7822C180.573 29.1731 180.121 29.6954 179.814 30.3029C179.508 30.9103 179.356 31.584 179.372 32.2642C179.372 34.4337 180.902 35.9632 183.918 36.7225L186.456 37.3517C187.801 37.7639 188.452 38.3605 188.452 39.1849C188.434 39.4256 188.354 39.6575 188.219 39.8574C188.084 40.0573 187.898 40.2181 187.682 40.3239C187.051 40.7038 186.324 40.8923 185.588 40.8663C184.809 40.871 184.05 40.6279 183.418 40.1721C182.744 39.672 182.225 38.9913 181.922 38.2087C181.892 38.1406 181.838 38.0864 181.77 38.0568C181.703 38.0352 181.631 38.0352 181.564 38.0568L179.069 39.1415C179.005 39.1701 178.955 39.2221 178.929 39.2868C178.902 39.3515 178.902 39.4238 178.928 39.4887C179.408 40.8119 180.292 41.9504 181.455 42.7429C182.666 43.5562 184.097 43.9801 185.555 43.9578C187.156 44.0148 188.729 43.5251 190.014 42.5693C190.568 42.1699 191.019 41.6453 191.332 41.0384C191.645 40.4315 191.81 39.7593 191.814 39.0765C191.836 36.6575 190.231 35.128 187.193 34.3144ZM199.364 33.7287L201.621 34.3144C204.701 35.128 206.263 36.6575 206.242 39.0765C206.237 39.7593 206.072 40.4315 205.759 41.0384C205.446 41.6453 204.995 42.1699 204.441 42.5693C203.156 43.5251 201.583 44.0148 199.983 43.9578C198.524 43.9801 197.093 43.5562 195.882 42.7429C194.719 41.9504 193.835 40.8119 193.355 39.4887C193.329 39.4238 193.329 39.3515 193.356 39.2868C193.382 39.2221 193.432 39.1701 193.496 39.1415L195.991 38.0568C196.058 38.0352 196.13 38.0352 196.197 38.0568C196.265 38.0864 196.319 38.1406 196.349 38.2087C196.652 38.9913 197.171 39.672 197.846 40.1721C198.477 40.6279 199.237 40.871 200.015 40.8663C200.751 40.8923 201.478 40.7038 202.109 40.3239C202.326 40.2181 202.511 40.0573 202.646 39.8574C202.781 39.6575 202.862 39.4256 202.879 39.1849C202.879 38.3605 202.217 37.7639 200.883 37.3517L198.345 36.7225C195.329 35.9632 193.8 34.4337 193.8 32.2642C193.783 31.584 193.935 30.9103 194.242 30.3029C194.548 29.6954 195 29.1731 195.557 28.7822C196.753 28.0015 198.139 27.5607 199.566 27.5072C200.994 27.4537 202.409 27.7895 203.66 28.4784C204.719 29.0724 205.548 30.0044 206.014 31.1252C206.028 31.1587 206.035 31.1945 206.035 31.2308C206.035 31.267 206.028 31.3029 206.013 31.3363C205.999 31.3697 205.979 31.3999 205.953 31.4251C205.927 31.4503 205.896 31.4701 205.862 31.4832L203.367 32.568C203.302 32.5936 203.23 32.5933 203.165 32.567C203.101 32.5408 203.049 32.4906 203.02 32.4269C202.754 31.8528 202.308 31.3808 201.751 31.0819C201.135 30.7482 200.444 30.5764 199.744 30.5829C199.104 30.5751 198.475 30.7522 197.932 31.0927C197.724 31.192 197.547 31.3448 197.417 31.5354C197.287 31.726 197.211 31.9476 197.195 32.1775C197.195 32.8826 197.922 33.4032 199.364 33.7287Z" fill="#1A1A1A"/>
</svg>
