<svg width="190" height="30" viewBox="0 0 190 30" fill="none" xmlns="http://www.w3.org/2000/svg">
<g clip-path="url(#clip0_33_307)">
<path fill-rule="evenodd" clip-rule="evenodd" d="M56.6475 22.7777C56.7162 22.7783 56.7822 22.7517 56.8313 22.7037C56.8804 22.6558 56.9085 22.5904 56.9095 22.5218V0.25699C56.9093 0.2229 56.9023 0.189197 56.889 0.157816C56.8757 0.126434 56.8563 0.0979902 56.8319 0.0741178C56.8076 0.0502454 56.7788 0.0314138 56.7471 0.0187032C56.7155 0.00599259 56.6816 -0.000347896 56.6475 4.79748e-05H53.7865C53.7529 4.5631e-05 53.7197 0.00671352 53.6886 0.0196624C53.6576 0.0326112 53.6295 0.051584 53.6059 0.0754831C53.5822 0.0993823 53.5636 0.127733 53.551 0.158889C53.5384 0.190046 53.5322 0.22339 53.5326 0.25699V22.5218C53.5324 22.5553 53.5389 22.5884 53.5516 22.6194C53.5643 22.6504 53.5829 22.6786 53.6065 22.7023C53.6301 22.7261 53.6582 22.745 53.689 22.7579C53.7199 22.7709 53.7531 22.7776 53.7865 22.7777H56.6475ZM131.9 22.7777H134.763C134.83 22.7772 134.895 22.7501 134.943 22.7022C134.991 22.6543 135.018 22.5895 135.019 22.5218V12.945C135.126 11.2226 134.561 9.52557 133.443 8.21114C132.852 7.63214 132.146 7.18336 131.371 6.89373C130.596 6.6041 129.769 6.48003 128.943 6.52953C127.912 6.53493 126.899 6.80261 126.001 7.30735C125.513 7.5739 125.063 7.90515 124.665 8.29212L124.252 8.69803V7.28636C124.252 7.25288 124.245 7.21967 124.233 7.18864C124.22 7.15761 124.202 7.12936 124.178 7.1055C124.155 7.08164 124.127 7.06264 124.096 7.04959C124.065 7.03653 124.032 7.02968 123.999 7.02942H121.259C121.19 7.02994 121.125 7.05714 121.077 7.10519C121.029 7.15323 121.001 7.21828 121.001 7.28636V22.5218C121.002 22.5902 121.03 22.6555 121.078 22.7034C121.127 22.7513 121.193 22.778 121.262 22.7777H124.125C124.159 22.7784 124.192 22.7723 124.224 22.7597C124.256 22.7471 124.285 22.7284 124.309 22.7046C124.333 22.6807 124.352 22.6523 124.366 22.6209C124.379 22.5895 124.386 22.5558 124.386 22.5218V14.0938C124.355 12.9474 124.742 11.829 125.475 10.9465C125.787 10.5388 126.191 10.2098 126.654 9.98574C127.116 9.76166 127.625 9.64868 128.139 9.6558C130.439 9.6558 131.585 10.7915 131.646 13.123V22.5208C131.645 22.5885 131.672 22.6536 131.719 22.7017C131.767 22.7499 131.832 22.7772 131.9 22.7777ZM106.408 18.6817C106.007 19.1522 105.507 19.5281 104.944 19.7822C104.381 20.0363 103.768 20.1624 103.151 20.1513C102.531 20.1673 101.916 20.0472 101.348 19.7995C100.78 19.5518 100.274 19.1825 99.8646 18.7177C98.9597 17.6582 98.4917 16.2943 98.5556 14.9026C98.4971 13.5256 98.9615 12.1774 99.8556 11.1284C100.263 10.6548 100.77 10.2772 101.341 10.0228C101.911 9.76835 102.531 9.64336 103.156 9.65679C103.772 9.64737 104.384 9.77421 104.946 10.0283C105.508 10.2823 106.007 10.6573 106.408 11.1264C107.32 12.1675 107.797 13.5195 107.741 14.9026C107.8 16.2869 107.322 17.6406 106.408 18.6817ZM108.914 8.98395C108.266 8.20928 107.455 7.58773 106.539 7.16402C105.622 6.74031 104.623 6.52498 103.614 6.53352C102.508 6.52189 101.415 6.77741 100.43 7.27835C99.8927 7.55063 99.3998 7.90216 98.9676 8.3211L98.5556 8.73001V7.28435C98.5558 7.25014 98.5492 7.21623 98.5362 7.18462C98.5231 7.153 98.5039 7.12432 98.4795 7.10028C98.4552 7.07623 98.4263 7.05731 98.3945 7.04462C98.3628 7.03193 98.3288 7.02574 98.2946 7.02641H95.5586C95.49 7.02641 95.4243 7.05355 95.3758 7.10189C95.3272 7.15024 95.2998 7.21585 95.2996 7.28435V29.2402C95.3001 29.3085 95.3276 29.3739 95.3761 29.422C95.4246 29.4701 95.4902 29.4972 95.5586 29.4972H98.4246C98.4921 29.4961 98.5566 29.4686 98.6041 29.4206C98.6516 29.3725 98.6783 29.3078 98.6786 29.2402V22.4928L98.6056 21.1431L99.0456 21.558C99.4601 21.9469 99.9273 22.2753 100.434 22.5338C101.42 23.0339 102.512 23.2881 103.618 23.2746C104.624 23.2834 105.62 23.069 106.533 22.6469C107.447 22.2247 108.255 21.6053 108.901 20.8332C110.373 19.2139 111.167 17.0906 111.118 14.9026C111.158 12.722 110.371 10.607 108.914 8.98395ZM170.433 22.7777H167.575C167.54 22.7784 167.507 22.7722 167.475 22.7596C167.443 22.747 167.414 22.7282 167.39 22.7042C167.366 22.6803 167.346 22.6517 167.333 22.6202C167.32 22.5887 167.313 22.5549 167.314 22.5208V13.123C167.26 10.7915 166.114 9.65581 163.814 9.65581C163.3 9.64758 162.791 9.76009 162.329 9.98428C161.867 10.2085 161.464 10.5381 161.153 10.9465C160.416 11.8271 160.027 12.9464 160.059 14.0938V22.5218C160.058 22.5899 160.03 22.6548 159.981 22.7027C159.933 22.7505 159.868 22.7775 159.8 22.7777H156.94C156.905 22.7787 156.872 22.7727 156.84 22.7603C156.808 22.7478 156.779 22.7291 156.755 22.7052C156.73 22.6813 156.711 22.6527 156.698 22.6212C156.685 22.5897 156.678 22.5559 156.679 22.5218V7.28636C156.678 7.25213 156.684 7.21813 156.697 7.18644C156.71 7.15475 156.73 7.12603 156.754 7.102C156.778 7.07798 156.807 7.05916 156.839 7.04668C156.871 7.03421 156.905 7.02833 156.94 7.02942H159.675C159.708 7.02888 159.742 7.03516 159.774 7.04788C159.805 7.0606 159.834 7.07951 159.857 7.10347C159.881 7.12744 159.9 7.15598 159.913 7.1874C159.926 7.21882 159.932 7.25247 159.932 7.28636V8.70003L160.345 8.29213C160.743 7.90497 161.192 7.57369 161.68 7.30736C162.578 6.80204 163.59 6.53432 164.621 6.52954C165.445 6.48002 166.271 6.60411 167.044 6.89378C167.818 7.18346 168.522 7.63226 169.111 8.21115C170.232 9.52404 170.8 11.2216 170.693 12.945V22.5218C170.692 22.5901 170.664 22.6554 170.615 22.7033C170.567 22.7513 170.501 22.778 170.433 22.7777ZM185.291 18.7167C184.891 19.1847 184.391 19.5567 183.827 19.8051C183.264 20.0535 182.652 20.1718 182.037 20.1513C181.418 20.1625 180.804 20.0362 180.24 19.7815C179.675 19.5269 179.175 19.1502 178.774 18.6787C177.853 17.6423 177.375 16.2869 177.442 14.9026C177.383 13.5193 177.86 12.1667 178.774 11.1264C179.175 10.6552 179.675 10.2788 180.24 10.0245C180.804 9.77016 181.418 9.64423 182.037 9.65579C182.656 9.64105 183.271 9.76574 183.836 10.0206C184.401 10.2755 184.902 10.6541 185.301 11.1284C186.211 12.1697 186.687 13.5206 186.631 14.9026C186.697 16.2997 186.216 17.6678 185.291 18.7167ZM189.883 7.28635C189.883 7.25237 189.877 7.21863 189.864 7.18714C189.851 7.15566 189.832 7.12707 189.808 7.10309C189.784 7.07911 189.755 7.06023 189.724 7.04757C189.692 7.0349 189.659 7.02873 189.625 7.02941H186.891C186.822 7.02967 186.757 7.05679 186.709 7.10489C186.66 7.15299 186.633 7.21819 186.633 7.28635V8.747L186.221 8.3471C185.77 7.9064 185.254 7.53842 184.691 7.25635C183.723 6.77112 182.654 6.52204 181.572 6.52952C180.559 6.52796 179.558 6.74637 178.638 7.16964C177.719 7.59291 176.902 8.21094 176.245 8.98095C174.795 10.6082 174.016 12.7241 174.065 14.9026C174.022 17.0943 174.802 19.2226 176.251 20.8682C176.913 21.6271 177.73 22.2348 178.648 22.65C179.565 23.0653 180.561 23.2783 181.569 23.2746C182.652 23.2826 183.722 23.0335 184.691 22.5478C185.253 22.2667 185.769 21.9001 186.219 21.461L186.631 21.0611V21.8709C186.707 23.2107 186.263 24.5283 185.391 25.5481C184.943 26.0009 184.404 26.3527 183.81 26.58C183.215 26.8073 182.579 26.9047 181.944 26.8658C181.042 26.8845 180.157 26.6194 179.415 26.1079C178.703 25.6145 178.169 24.9059 177.891 24.0864C177.88 24.0522 177.862 24.0208 177.838 23.9944C177.813 23.968 177.784 23.9472 177.751 23.9335C177.719 23.9188 177.685 23.9113 177.651 23.9115C177.616 23.9109 177.582 23.9184 177.551 23.9335L174.845 25.0512C174.784 25.0754 174.735 25.122 174.707 25.1813C174.68 25.2407 174.677 25.3083 174.698 25.3701C174.934 26.0542 175.287 26.6921 175.741 27.2557C176.203 27.823 176.754 28.3131 177.371 28.7073C178.023 29.1233 178.732 29.4425 179.477 29.6551C180.278 29.8854 181.109 29.9992 181.944 29.993C183.005 30.0379 184.065 29.8668 185.059 29.4903C186.053 29.1138 186.96 28.5397 187.726 27.8025C188.466 27.0098 189.039 26.0756 189.41 25.0559C189.781 24.0363 189.941 22.9522 189.883 21.8689V7.28635ZM147.82 18.9466C148.599 18.2582 149.075 17.2905 149.146 16.2533L149.157 16.1153L149.046 16.0393C148.033 15.4264 146.86 15.1308 145.678 15.1905C144.698 15.1572 143.733 15.434 142.921 15.9813C142.601 16.1791 142.337 16.4544 142.152 16.7816C141.968 17.1088 141.869 17.4773 141.865 17.8529C141.862 18.1783 141.937 18.4995 142.085 18.7896C142.232 19.0797 142.447 19.33 142.712 19.5195C143.298 19.9855 144.03 20.2304 144.779 20.2113C145.344 20.2112 145.903 20.0994 146.425 19.8824C146.947 19.6653 147.421 19.3473 147.82 18.9466ZM152.146 22.7777H149.414C149.379 22.7785 149.346 22.7725 149.314 22.76C149.282 22.7475 149.253 22.7288 149.229 22.7049C149.204 22.6811 149.185 22.6526 149.172 22.6212C149.158 22.5897 149.152 22.5559 149.152 22.5218V21.0651L148.736 21.503C148.203 22.0753 147.555 22.5288 146.835 22.8341C146.116 23.1393 145.339 23.2894 144.558 23.2746C142.953 23.3222 141.39 22.7672 140.175 21.719C139.605 21.2373 139.149 20.6354 138.84 19.9565C138.531 19.2777 138.376 18.5387 138.387 17.7929C138.363 17.0299 138.522 16.2724 138.851 15.5833C139.179 14.8943 139.668 14.2938 140.276 13.8318C141.709 12.8054 143.447 12.2928 145.208 12.3772C146.438 12.3488 147.662 12.5579 148.813 12.993L149.162 13.139L149.146 12.7591C149.129 12.3391 149.024 11.9274 148.837 11.5506C148.651 11.1739 148.387 10.8407 148.064 10.5726C147.35 9.92827 146.419 9.5788 145.458 9.59482C144.745 9.57653 144.04 9.74353 143.411 10.0795C142.782 10.4154 142.251 10.9088 141.871 11.5114C141.832 11.5628 141.775 11.5978 141.712 11.6095C141.649 11.6211 141.583 11.6086 141.529 11.5744L139.011 9.99073C138.951 9.94916 138.91 9.8872 138.894 9.81677C138.886 9.78429 138.886 9.75058 138.893 9.71807C138.901 9.68557 138.915 9.65508 138.936 9.62881C139.646 8.61388 140.604 7.79673 141.718 7.25446C142.832 6.71219 144.066 6.46271 145.304 6.52954C147.194 6.43169 149.05 7.06337 150.488 8.29413C151.134 8.91669 151.639 9.67034 151.97 10.5044C152.301 11.3385 152.45 12.2338 152.406 13.13V22.5218C152.406 22.5558 152.399 22.5896 152.386 22.621C152.373 22.6524 152.354 22.6809 152.33 22.7048C152.306 22.7287 152.277 22.7475 152.245 22.76C152.213 22.7725 152.18 22.7785 152.146 22.7777ZM45.4856 18.6817C45.0843 19.1523 44.5838 19.5281 44.0199 19.7822C43.4561 20.0363 42.843 20.1624 42.2246 20.1514C41.6043 20.1669 40.9882 20.0466 40.4193 19.7989C39.8505 19.5513 39.3427 19.1822 38.9316 18.7177C38.0303 17.6564 37.5641 16.2934 37.6266 14.9026C37.5663 13.5254 38.0309 12.1766 38.9266 11.1285C39.3338 10.6548 39.841 10.2772 40.4115 10.0227C40.9821 9.76827 41.602 9.64331 42.2266 9.65681C42.8446 9.6465 43.4572 9.7729 44.0206 10.027C44.584 10.281 45.0843 10.6565 45.4856 11.1265C46.3978 12.1676 46.8744 13.5197 46.8166 14.9026C46.872 16.286 46.3958 17.6382 45.4856 18.6817ZM47.9856 8.98397C47.3377 8.2099 46.5265 7.58875 45.6102 7.1651C44.6938 6.74144 43.6951 6.52576 42.6856 6.53354C41.5799 6.52161 40.4877 6.77642 39.5016 7.27637C38.9642 7.55223 38.4705 7.90597 38.0366 8.32612L37.6256 8.72603V7.28437C37.6253 7.21604 37.598 7.15058 37.5497 7.10227C37.5014 7.05395 37.4359 7.02669 37.3676 7.02643H34.6276C34.5939 7.02656 34.5605 7.03334 34.5294 7.04639C34.4984 7.05943 34.4702 7.07849 34.4465 7.10245C34.4228 7.12642 34.4041 7.15482 34.3914 7.18604C34.3787 7.21726 34.3723 7.25067 34.3726 7.28437V29.2402C34.3728 29.308 34.3997 29.3729 34.4474 29.4209C34.4951 29.469 34.5598 29.4964 34.6276 29.4972H37.4856C37.5539 29.4972 37.6195 29.4702 37.668 29.422C37.7165 29.3739 37.744 29.3086 37.7446 29.2402V22.4928L37.6586 21.1451L38.1026 21.558C38.5232 21.9448 38.9941 22.2731 39.5026 22.5338C40.488 23.0345 41.5803 23.2887 42.6856 23.2746C43.6928 23.2829 44.6895 23.0682 45.604 22.6462C46.5186 22.2241 47.3284 21.605 47.9756 20.8332C49.4457 19.2129 50.2369 17.0897 50.1856 14.9026C50.2276 12.7225 49.4414 10.6075 47.9856 8.98397ZM69.8345 18.9456C70.6158 18.2589 71.0923 17.2901 71.1596 16.2523L71.1656 16.1153L71.0516 16.0393C70.0408 15.4253 68.8687 15.1293 67.6876 15.1895C66.7089 15.1557 65.7447 15.4329 64.9336 15.9813C64.6134 16.1796 64.3484 16.4555 64.1632 16.7833C63.9779 17.1111 63.8783 17.4804 63.8736 17.8569C63.8726 18.1819 63.9494 18.5024 64.0974 18.7918C64.2454 19.0812 64.4604 19.331 64.7246 19.5205C65.3115 19.9847 66.0424 20.2291 66.7906 20.2113C67.3563 20.2113 67.9165 20.0995 68.4389 19.8823C68.9613 19.665 69.4356 19.3467 69.8345 18.9456ZM74.1596 22.7777H71.4236C71.3558 22.7775 71.291 22.7504 71.2432 22.7024C71.1954 22.6544 71.1686 22.5895 71.1686 22.5218V21.0641L70.7486 21.503C70.2169 22.0756 69.5702 22.5294 68.8509 22.8347C68.1316 23.14 67.3559 23.2899 66.5746 23.2746C64.9702 23.3255 63.4056 22.77 62.1926 21.719C61.6227 21.2376 61.1668 20.6357 60.858 19.9567C60.5491 19.2778 60.3949 18.5387 60.4066 17.7929C60.3823 17.0302 60.5409 16.2727 60.869 15.5836C61.197 14.8946 61.6851 14.294 62.2926 13.8318C63.7248 12.8035 65.4633 12.2908 67.2246 12.3772C68.4561 12.3507 69.6815 12.5597 70.8345 12.993L71.1846 13.137L71.1686 12.7591C71.1499 12.3382 71.0427 11.9259 70.854 11.5492C70.6654 11.1725 70.3994 10.8397 70.0736 10.5726C69.3631 9.92751 68.4331 9.5778 67.4736 9.59481C66.7613 9.57708 66.0566 9.74411 65.4282 10.0796C64.7997 10.4152 64.269 10.9077 63.8876 11.5094C63.849 11.5609 63.7925 11.5962 63.7292 11.6082C63.6659 11.6202 63.6004 11.6082 63.5456 11.5744L61.0226 9.99072C60.9933 9.97163 60.9682 9.94683 60.9488 9.91779C60.9294 9.88875 60.916 9.85609 60.9096 9.82176C60.8966 9.75508 60.9098 9.68597 60.9466 9.62881C61.659 8.61379 62.6181 7.79672 63.7335 7.25453C64.849 6.71233 66.0841 6.46283 67.3226 6.52953C69.2114 6.43195 71.0655 7.06368 72.5016 8.29412C73.147 8.91708 73.6517 9.67093 73.9817 10.505C74.3116 11.3391 74.4592 12.2341 74.4146 13.13V22.5218C74.4146 22.5895 74.3877 22.6544 74.3399 22.7024C74.2921 22.7504 74.2273 22.7775 74.1596 22.7777ZM116.931 22.9427C116.887 22.9764 116.829 22.995 116.768 22.9947H114.226C114.196 22.9946 114.167 22.9899 114.14 22.9808C114.112 22.9717 114.087 22.9584 114.066 22.9417C114.045 22.925 114.029 22.9053 114.017 22.8835C114.006 22.8617 114 22.8384 114.001 22.8149V7.17887C114 7.15527 114.006 7.13186 114.017 7.10998C114.028 7.0881 114.045 7.06819 114.066 7.0514C114.087 7.03462 114.112 7.02129 114.139 7.0122C114.167 7.00311 114.196 6.99842 114.226 6.99843H116.768C116.798 6.99815 116.828 7.0026 116.856 7.01153C116.884 7.02045 116.91 7.03368 116.932 7.05044C116.953 7.06721 116.97 7.08718 116.982 7.10922C116.994 7.13126 117 7.15493 117.001 7.17887V22.8149C117 22.8631 116.975 22.909 116.931 22.9427ZM116.768 4.9996C116.829 4.99967 116.887 4.99617 116.931 4.98985C116.975 4.98354 117 4.97493 117.001 4.96589V2.03345C117 2.02896 116.994 2.02452 116.982 2.02038C116.97 2.01625 116.953 2.01251 116.932 2.00936C116.91 2.00622 116.884 2.00374 116.856 2.00206C116.828 2.00039 116.798 1.99955 116.768 1.99961H114.226C114.196 1.99961 114.167 2.00048 114.139 2.00219C114.112 2.00389 114.087 2.00639 114.066 2.00954C114.045 2.01269 114.028 2.01642 114.017 2.02053C114.006 2.02463 114 2.02902 114.001 2.03345V4.96589C114 4.9703 114.006 4.97467 114.017 4.97875C114.029 4.98283 114.045 4.98654 114.066 4.98967C114.087 4.9928 114.112 4.99529 114.14 4.997C114.167 4.9987 114.196 4.99958 114.226 4.9996H116.768ZM82.7116 29.4972H79.7596C79.7165 29.4979 79.674 29.4875 79.6362 29.467C79.5984 29.4465 79.5665 29.4166 79.5436 29.3802C79.5204 29.3428 79.5067 29.3003 79.5035 29.2564C79.5004 29.2126 79.508 29.1686 79.5256 29.1283L82.9766 21.657L83.0206 21.557L76.7866 7.39033C76.7702 7.35172 76.7631 7.3098 76.7659 7.26796C76.7687 7.22611 76.7812 7.18549 76.8026 7.14939C76.8261 7.11269 76.8585 7.08248 76.8968 7.06152C76.935 7.04056 76.9779 7.02952 77.0216 7.02942H80.1336C80.1844 7.0297 80.2341 7.04479 80.2766 7.07284C80.319 7.1009 80.3524 7.14069 80.3726 7.18738L84.7016 17.6299L88.9126 7.18738C88.9323 7.14054 88.9654 7.10056 89.0077 7.07246C89.05 7.04436 89.0997 7.02938 89.1506 7.02942H92.2626C92.3043 7.02851 92.3456 7.038 92.3828 7.05702C92.42 7.07604 92.4519 7.104 92.4756 7.13839C92.4997 7.17457 92.5144 7.21617 92.5184 7.25945C92.5224 7.30274 92.5156 7.34634 92.4986 7.38633L82.9476 29.3412C82.928 29.3876 82.8952 29.4271 82.8532 29.4549C82.8112 29.4827 82.7619 29.4974 82.7116 29.4972Z" fill="white"/>
<path d="M19.8566 6.88505L10.1676 0.978051C9.12029 0.339094 7.91735 0.000735622 6.69056 5.10512e-05C5.54252 -0.00444888 4.4129 0.288609 3.41184 0.850654C2.41078 1.4127 1.57244 2.22455 0.978556 3.20705C0.44895 4.07201 0.123694 5.0464 0.0275556 6.05605C-0.0344444 6.72905 0.0275556 27.0231 0.0275556 29.5021C0.0275556 29.6347 0.0802336 29.7618 0.174002 29.8556C0.26777 29.9494 0.394947 30.0021 0.527556 30.0021C0.625708 30.0021 0.721697 29.9732 0.803557 29.9191L5.17956 27.2501C5.25608 27.2063 5.3197 27.1432 5.36395 27.067C5.4082 26.9907 5.43153 26.9042 5.43156 26.8161C5.43156 26.8161 5.43156 8.32905 5.45256 7.99305C5.48786 7.61371 5.61001 7.24759 5.80956 6.92305C6.03262 6.55513 6.34715 6.25124 6.72252 6.04095C7.09788 5.83066 7.5213 5.72114 7.95156 5.72305C8.41165 5.72083 8.86335 5.84613 9.25656 6.08505L16.4186 10.4491C16.7842 10.6741 17.0863 10.9888 17.2963 11.3633C17.5063 11.7378 17.6172 12.1597 17.6186 12.5891C17.6176 13.0186 17.5068 13.4408 17.2968 13.8155C17.0868 14.1902 16.7845 14.505 16.4186 14.7301L9.81856 18.7501V23.0501C9.81856 23.0561 9.81856 23.0611 9.81856 23.0671C9.81856 23.2691 9.89884 23.463 10.0417 23.6059C10.1846 23.7488 10.3785 23.8291 10.5806 23.8291C10.7331 23.8294 10.8823 23.7837 11.0086 23.6981L19.8566 18.3021C20.8331 17.7024 21.6403 16.8632 22.2016 15.8641C22.7628 14.865 23.0595 13.739 23.0636 12.5931C23.0594 11.4473 22.7626 10.3215 22.2013 9.32257C21.6401 8.32363 20.833 7.4846 19.8566 6.88505Z" fill="white"/>
</g>
<defs>
<clipPath id="clip0_33_307">
<rect width="190" height="30" fill="white"/>
</clipPath>
</defs>
</svg>
