<svg width="16" height="16" viewBox="0 0 16 16" fill="none" xmlns="http://www.w3.org/2000/svg">
<g clip-path="url(#clip0_38_571)">
<path fill-rule="evenodd" clip-rule="evenodd" d="M8 0.0514069C12.4183 0.0514069 16 3.63186 16 8.04858C16 12.0402 13.0745 15.3486 9.25 15.9486V10.3603H11.1141L11.4688 8.04858H11.4302L11.434 8.02391H9.25V6.54844C9.25 5.916 9.55992 5.29955 10.5537 5.29955H11.5625V3.3315C11.5625 3.3315 11.5505 3.32945 11.528 3.32583V3.28894C11.528 3.28894 10.6107 3.13215 9.73367 3.13215C7.90272 3.13215 6.70604 4.24346 6.70604 6.25535V8.02391H4.67082V10.3444H4.71875V10.3603H6.70604V15.9416C2.90309 15.3233 0 12.0249 0 8.04858C0 3.63186 3.58172 0.0514069 8 0.0514069Z" fill="white"/>
</g>
<defs>
<clipPath id="clip0_38_571">
<rect width="16" height="16" fill="white"/>
</clipPath>
</defs>
</svg>
