<svg width="16" height="16" viewBox="0 0 16 16" fill="none" xmlns="http://www.w3.org/2000/svg">
<g clip-path="url(#clip0_38_577)">
<path fill-rule="evenodd" clip-rule="evenodd" d="M15.9519 4.80699C15.913 3.9826 15.7777 3.41962 15.58 2.92707C15.3792 2.41029 15.0642 1.9422 14.6572 1.5553C14.2577 1.1613 13.774 0.856296 13.2402 0.661781C12.7313 0.470456 12.1499 0.339637 11.2983 0.302176C10.4452 0.26436 10.1726 0.255379 8 0.255379C5.82739 0.255379 5.55481 0.26436 4.70166 0.301939C3.8501 0.339637 3.26868 0.470574 2.75977 0.662017C2.22595 0.856414 1.74243 1.1613 1.34277 1.5553C0.935791 1.94208 0.620728 2.41017 0.4198 2.92695C0.222168 3.41962 0.0870361 3.9826 0.0483398 4.80687C0.00927734 5.63291 0 5.89667 0 7.99994C0 10.1033 0.00927734 10.3672 0.0483398 11.1931C0.0871582 12.0174 0.222412 12.5804 0.420166 13.0731C0.620972 13.5897 0.935913 14.0579 1.3429 14.4447C1.74243 14.8387 2.22607 15.1436 2.75989 15.338C3.26868 15.5295 3.85022 15.6604 4.70178 15.6981C5.55505 15.7358 5.82751 15.7446 8.00012 15.7446C10.1727 15.7446 10.4453 15.7358 11.2985 15.6981C12.15 15.6604 12.7314 15.5295 13.2404 15.338C14.3149 14.9357 15.1644 14.1133 15.58 13.0731C15.7778 12.5804 15.913 12.0174 15.9519 11.1931C15.9907 10.3671 16 10.1033 16 8.00006C16 5.89667 15.9907 5.63291 15.9519 4.80699ZM14.5118 11.1297C14.4763 11.8848 14.3459 12.2949 14.2365 12.5677C13.9673 13.2432 13.4159 13.777 12.7181 14.0376C12.4363 14.1436 12.0127 14.2698 11.2327 14.3042C10.3893 14.3415 10.1362 14.3493 8 14.3493C5.86365 14.3493 5.61072 14.3415 4.76721 14.3042C3.9873 14.2698 3.56372 14.1436 3.28174 14.0376C2.93433 13.9134 2.62 13.7154 2.36194 13.4582C2.09619 13.2084 1.89172 12.9042 1.76343 12.5677C1.65393 12.2949 1.52356 11.8848 1.48804 11.1297C1.44958 10.3131 1.44141 10.0681 1.44141 8.00018C1.44141 5.93213 1.44958 5.68727 1.48804 4.87056C1.52368 4.11543 1.65393 3.70536 1.76343 3.4325C1.89172 3.09606 2.09631 2.79176 2.36194 2.54194C2.62 2.28467 2.93433 2.08673 3.28186 1.96265C3.56372 1.85652 3.9873 1.73043 4.76733 1.69593C5.61084 1.6587 5.86389 1.65078 8 1.65078C10.136 1.65078 10.3891 1.6587 11.2327 1.69604C12.0127 1.73043 12.4362 1.85664 12.7181 1.96265C13.0656 2.08685 13.3799 2.28479 13.6379 2.54194C13.9037 2.79176 14.1082 3.09606 14.2363 3.4325C14.3459 3.70536 14.4763 4.11543 14.5118 4.87056C14.5503 5.68715 14.5585 5.93213 14.5585 8.00006C14.5585 10.0681 14.5504 10.313 14.5118 11.1297ZM7.99988 4.02302C5.73108 4.02302 3.89185 5.80367 3.89185 8.00006C3.89185 10.1964 5.73108 11.977 7.99988 11.977C10.2688 11.977 12.108 10.1964 12.108 8.00006C12.108 5.80367 10.2688 4.02302 7.99988 4.02302ZM7.99988 10.5816C6.52722 10.5815 5.33325 9.42572 5.33337 7.99994C5.33337 6.57428 6.52722 5.41842 8 5.41842C9.47278 5.41854 10.6666 6.57428 10.6666 7.99994C10.6666 9.42572 9.47266 10.5816 7.99988 10.5816ZM12.2704 4.79529C12.8005 4.79529 13.2303 4.37919 13.2303 3.86596C13.2303 3.35261 12.8005 2.93652 12.2704 2.93652C11.7401 2.93652 11.3103 3.35261 11.3103 3.86596C11.3103 4.37919 11.7401 4.79529 12.2704 4.79529Z" fill="white"/>
</g>
<defs>
<clipPath id="clip0_38_577">
<rect width="16" height="16" fill="white"/>
</clipPath>
</defs>
</svg>
