<svg width="16" height="16" viewBox="0 0 16 16" fill="none" xmlns="http://www.w3.org/2000/svg">
<path d="M16 3.03915C15.4111 3.30015 14.7788 3.47649 14.1152 3.55578C14.7925 3.14983 15.3136 2.50642 15.5581 1.73994C14.9242 2.11657 14.2213 2.38955 13.4738 2.53656C12.8754 1.89893 12.0226 1.5 11.079 1.5C9.2664 1.5 7.79702 2.96977 7.79702 4.7819C7.79702 5.03918 7.82593 5.28945 7.88251 5.53021C5.15438 5.3931 2.73639 4.08645 1.11752 2.10088C0.835041 2.58529 0.673154 3.14942 0.673154 3.75071C0.673154 4.88928 1.13775 5.89404 2.01864 6.48253C1.48053 6.46518 0.831324 6.31775 0.418347 6.07162V6.11292C0.418347 7.70328 1.66347 9.02934 3.16465 9.33081C2.88878 9.40597 2.65586 9.44644 2.35686 9.44644C2.14542 9.44644 1.96825 9.42579 1.76796 9.38739C2.1863 10.6907 3.41285 11.6402 4.84836 11.6666C3.72547 12.5466 2.31722 13.0715 0.780115 13.0715C0.51457 13.0715 0.257285 13.0558 0 13.0257C1.45244 13.9569 3.1791 14.5 5.03255 14.5C11.0695 14.5 14.3712 9.4993 14.3712 5.16266C14.3712 5.02019 14.3679 4.87854 14.3621 4.73813C15.0035 4.2756 15.5606 3.69702 16 3.03915Z" fill="white"/>
</svg>
