<svg width="16" height="16" viewBox="0 0 16 16" fill="none" xmlns="http://www.w3.org/2000/svg">
<path fill-rule="evenodd" clip-rule="evenodd" d="M15.1541 3.2624C15.4013 3.50961 15.5794 3.81726 15.6708 4.15473C16 5.40576 16 8.01316 16 8.01316C16 8.01316 16 10.6074 15.6708 11.8584C15.5794 12.1959 15.4013 12.5035 15.1541 12.7508C14.9068 12.998 14.5992 13.1761 14.2617 13.2675C13.0107 13.6099 8.00658 13.6099 8.00658 13.6099C8.00658 13.6099 3.00247 13.6099 1.75144 13.2675C1.41398 13.1761 1.10632 12.998 0.859109 12.7508C0.611895 12.5035 0.433743 12.1959 0.342387 11.8584C0 10.6074 0 8.01316 0 8.01316C0 8.01316 0 5.40576 0.342387 4.15473C0.433743 3.81726 0.611895 3.50961 0.859109 3.2624C1.10632 3.01518 1.41398 2.83703 1.75144 2.74568C3.00247 2.40329 8.00658 2.40329 8.00658 2.40329C8.00658 2.40329 13.0107 2.40329 14.2617 2.74568C14.5992 2.83703 14.9068 3.01518 15.1541 3.2624ZM10.5613 7.99999L6.40002 10.3967V5.60329L10.5613 7.99999Z" fill="white"/>
</svg>
