<svg width="72" height="48" viewBox="0 0 72 48" fill="none" xmlns="http://www.w3.org/2000/svg">
<path d="M68 0H4C2.93913 0 1.92172 0.421427 1.17157 1.17157C0.421427 1.92172 0 2.93913 0 4L0 43C0 44.0609 0.421427 45.0783 1.17157 45.8284C1.92172 46.5786 2.93913 47 4 47H68C69.0609 47 70.0783 46.5786 70.8284 45.8284C71.5786 45.0783 72 44.0609 72 43V4C72 2.93913 71.5786 1.92172 70.8284 1.17157C70.0783 0.421427 69.0609 0 68 0ZM66 39C66 39.5304 65.7893 40.0391 65.4142 40.4142C65.0391 40.7893 64.5304 41 64 41H8C7.46957 41 6.96086 40.7893 6.58579 40.4142C6.21071 40.0391 6 39.5304 6 39V21C6 20.4696 6.21071 19.9609 6.58579 19.5858C6.96086 19.2107 7.46957 19 8 19H64C64.5304 19 65.0391 19.2107 65.4142 19.5858C65.7893 19.9609 66 20.4696 66 21V39Z" fill="#ECEADC"/>
<path d="M68 47H4C2.93913 47 1.92172 46.5786 1.17157 45.8284C0.421427 45.0783 0 44.0609 0 43V4C0 2.93913 0.421427 1.92172 1.17157 1.17157C1.92172 0.421427 2.93913 0 4 0L68 0C69.0609 0 70.0783 0.421427 70.8284 1.17157C71.5786 1.92172 72 2.93913 72 4V43C72 44.0609 71.5786 45.0783 70.8284 45.8284C70.0783 46.5786 69.0609 47 68 47ZM4 2C3.46957 2 2.96086 2.21071 2.58579 2.58579C2.21071 2.96086 2 3.46957 2 4V43C2 43.5304 2.21071 44.0391 2.58579 44.4142C2.96086 44.7893 3.46957 45 4 45H68C68.5304 45 69.0391 44.7893 69.4142 44.4142C69.7893 44.0391 70 43.5304 70 43V4C70 3.46957 69.7893 2.96086 69.4142 2.58579C69.0391 2.21071 68.5304 2 68 2H4Z" fill="black"/>
<path d="M64 42H8C7.20435 42 6.44129 41.6839 5.87868 41.1213C5.31607 40.5587 5 39.7956 5 39V21C5 20.2044 5.31607 19.4413 5.87868 18.8787C6.44129 18.3161 7.20435 18 8 18H64C64.7956 18 65.5587 18.3161 66.1213 18.8787C66.6839 19.4413 67 20.2044 67 21V39C67 39.7956 66.6839 40.5587 66.1213 41.1213C65.5587 41.6839 64.7956 42 64 42ZM8 20C7.73478 20 7.48043 20.1054 7.29289 20.2929C7.10536 20.4804 7 20.7348 7 21V39C7 39.2652 7.10536 39.5196 7.29289 39.7071C7.48043 39.8946 7.73478 40 8 40H64C64.2652 40 64.5196 39.8946 64.7071 39.7071C64.8946 39.5196 65 39.2652 65 39V21C65 20.7348 64.8946 20.4804 64.7071 20.2929C64.5196 20.1054 64.2652 20 64 20H8Z" fill="black"/>
</svg>
